<?xml version="1.0" standalone="yes"?>
<svg xmlns="http://www.w3.org/2000/svg" width="2000" height="1000">
<path style="fill:transparent; stroke:none;" d="M0 0L0 1000L2000 1000L2000 0L0 0z"/>
<path style="fill:#200000; stroke:none;" d="M514 74C509.281 94.5851 500.819 115.067 498 136L454 136C449.79 136 441.224 134.374 437.703 137.028C434.104 139.74 433.71 147.92 432.576 152C428.499 166.668 423.033 181.903 421 197L358 197C353.711 217.78 345.087 238.022 342 259L296 259C291.959 259 282.924 257.315 279.938 260.603C277.256 263.556 276.603 270.214 275.63 274C272.967 284.356 269.999 294.635 267.374 305C266.316 309.177 265.739 316.33 262.437 319.397C259.541 322.085 253.62 321 250 321L216 321C212.215 321 203.895 319.432 201.139 322.603C197.161 327.181 196.639 337.263 195 343C190.074 360.24 185.675 377.659 181.116 395C171.202 432.707 161.03 470.364 150.849 508C145.2 528.883 138.383 549.819 134 571L196 571C191.835 591.126 185.574 611.212 180 631L427 631C422.278 651.599 413.822 672.047 411 693L582 693L634 693C641.212 693 650.923 694.712 657.856 692.682C662.598 691.294 663.135 682.069 664.29 678C667.396 667.057 670.352 656.031 673.127 645C674.082 641.2 674.724 634.336 678.303 632.028C680.92 630.341 685.044 631 688 631L711 631L799 631C796.17 652.019 787.296 672.243 783 693L1218 693C1222.28 672.253 1231.17 651.987 1234 631L1542 631C1537.71 651.75 1528.83 672.001 1526 693L1697 693L1749 693C1756.21 693 1765.92 694.712 1772.86 692.682C1777.53 691.315 1778.32 682.053 1779.37 678C1781.98 667.984 1784.83 658.033 1787.37 648C1788.47 643.662 1789.18 636.916 1791.94 633.318C1794.98 629.336 1803.59 631 1808 631L1853 631C1862.6 589.105 1874.91 547.418 1886.42 506C1890.21 492.379 1893.9 478.705 1897.37 465C1899.05 458.366 1901.44 451.854 1902 445L1842 445C1847 420.767 1854.82 396.93 1861.12 373C1873.92 324.284 1887 275.624 1900.15 227C1905.29 208.016 1910.16 188.947 1915.42 170C1918.47 159.038 1923.01 147.346 1924 136L1863 136C1866.08 115.047 1874.71 94.7711 1879 74L1629 74C1624.71 94.7385 1615.83 115.017 1613 136L1569 136C1564.85 136 1556.17 134.358 1552.73 137.028C1549.1 139.844 1548.45 148.785 1547.37 153C1543.65 167.48 1538 182.176 1536 197L1473 197C1470.75 212.32 1465.26 228.097 1461 243C1459.82 247.114 1459.37 255.401 1455.57 257.972C1451.73 260.573 1443.46 259 1439 259L1395 259C1398.28 247.37 1401.19 235.64 1404.42 224C1406.85 215.255 1410.26 206.06 1411 197L1351 197C1355.25 176.418 1362.31 156.474 1367 136L1305 136C1308.96 122.05 1312.81 108.057 1316.37 94C1318.05 87.3656 1320.44 80.8535 1321 74L1030 74L936 74L906 74C900.889 74 895.149 73.2701 890.108 74.1481C884.403 75.1417 884.076 84.4615 882.849 89C879.873 100.001 876.782 110.978 873.884 122C872.855 125.914 872.482 132.606 868.721 134.972C865.851 136.778 861.231 136 858 136L835 136L748 136C750.825 115.039 759.72 94.7346 764 74L514 74z"/>
<path style="fill:#000000; stroke:none;" d="M515 75C510.281 95.5852 501.819 116.067 499 137L455 137C450.79 137 442.224 135.374 438.703 138.028C435.104 140.74 434.71 148.919 433.576 153C429.499 167.668 424.033 182.903 422 198L359 198C354.711 218.78 346.087 239.022 343 260L297 260C292.959 260 283.924 258.315 280.938 261.603C278.256 264.556 277.603 271.214 276.63 275C273.967 285.356 270.999 295.635 268.374 306C267.316 310.176 266.739 317.33 263.437 320.397C260.541 323.085 254.62 322 251 322L217 322C213.215 322 204.895 320.432 202.139 323.603C198.322 327.995 197.849 337.506 196.29 343C191.49 359.913 186.942 376.957 182.626 394C172.808 432.762 162.282 471.474 151.576 510C147.971 522.97 144.539 535.982 141.116 549C139.3 555.906 136.622 562.867 136 570L197 570C195.335 590.391 184.733 609.723 182 630L428 630C427.295 638.081 424.266 646.182 422.151 654C418.728 666.654 415.554 679.382 412 692L581 692L633 692C640.212 692 649.923 693.712 656.856 691.682C661.598 690.294 662.135 681.069 663.29 677C666.396 666.057 669.352 655.031 672.127 644C673.082 640.2 673.724 633.336 677.303 631.028C680.131 629.204 684.801 630 688 630L711 630L800 630C799.079 651.142 786.833 670.985 785 692L1217 692C1221.28 671.253 1230.17 650.987 1233 630L1543 630C1542.26 639.06 1538.85 648.255 1536.42 657C1533.19 668.64 1530.28 680.37 1527 692L1696 692L1748 692C1755.21 692 1764.92 693.712 1771.86 691.682C1776.53 690.315 1777.32 681.053 1778.37 677C1780.98 666.984 1783.83 657.033 1786.37 647C1787.47 642.662 1788.18 635.916 1790.94 632.318C1793.98 628.336 1802.59 630 1807 630L1852 630C1862.62 583.677 1876.8 537.97 1888.88 492C1892.91 476.707 1897.8 461.489 1901 446L1841 446C1841.91 434.899 1846.28 423.743 1849.12 413C1854.84 391.312 1860.57 369.613 1866.58 348C1879.14 302.806 1890.96 257.365 1902.88 212C1909.46 187.003 1917.22 162.191 1923 137L1862 137C1862.96 115.931 1875.28 96.0438 1877 75L1630 75C1625.71 95.7384 1616.83 116.017 1614 137L1570 137C1565.85 137 1557.17 135.358 1553.73 138.028C1550.1 140.844 1549.45 149.785 1548.37 154C1544.65 168.48 1539 183.176 1537 198L1474 198C1471.75 213.32 1466.26 229.097 1462 244C1460.82 248.114 1460.37 256.401 1456.57 258.972C1452.55 261.691 1443.67 260 1439 260L1394 260C1396.83 239.001 1405.71 218.75 1410 198L1350 198C1351.7 177.22 1362.22 157.646 1365 137L1304 137C1306.83 116.039 1315.72 95.7347 1320 75L1030 75L936 75L906 75C901.206 75 895.837 74.3245 891.108 75.1481C885.403 76.1417 885.076 85.4615 883.849 90C880.873 101.001 877.782 111.978 874.884 123C873.855 126.914 873.482 133.606 869.721 135.972C866.85 137.779 862.231 137 859 137L836 137L747 137C747.919 115.904 760.282 96.0367 762 75L515 75z"/>
<path style="fill:#fff; stroke:none;" d="M545 198L482 198C477.704 218.759 468.83 238.985 466 260L422 260C417.851 260 409.166 258.358 405.728 261.028C402.082 263.858 401.488 272.778 400.29 277C396.216 291.355 390.215 307.119 389 322L344 322C339.658 322 330.312 320.24 326.728 323.028C323.367 325.641 322.823 334.079 321.71 338C317.554 352.644 311.322 368.842 310 384L247 384C245.146 397.767 240.142 411.623 236.424 425C231.622 442.281 227.38 459.718 222.576 477C219.849 486.811 216.36 496.901 215 507L461 507C459.135 528.387 448.124 548.765 445 570L568 570C572.311 549.171 582.268 528.206 584 507L647 507C651.694 486.526 658.752 466.582 663 446L601 446C629.914 343.35 654.887 239.594 684 137L594 137L571 137C568.224 137 563.947 136.267 561.564 138.028C558.159 140.543 557.507 149.105 556.424 153C552.424 167.392 546.297 183.122 545 198M933 137C929.868 152.135 925.047 167.049 921.116 182C920.016 186.183 919.172 195.425 914.772 197.397C911.01 199.083 905.045 198 901 198L870 198C865.421 198 856.591 196.124 854.249 201.148C850.321 209.575 849.064 220.048 846.576 229C840.201 251.934 834.169 274.978 828.116 298C809.782 367.729 791.548 437.601 772 507L834 507L817 570L1036 570L1098 570L1115 570C1117.65 570 1121.23 570.569 1123.7 569.397C1127.92 567.389 1128.59 558.043 1129.63 554C1132.47 542.966 1135.53 531.977 1138.58 521C1139.59 517.337 1139.9 511.38 1142.73 508.603C1145.64 505.746 1152.28 507 1156 507L1190 507C1193.8 507 1201.24 508.413 1204.15 505.397C1205.92 503.557 1206.28 500.37 1206.87 498C1208.22 492.647 1209.71 487.328 1211.15 482C1216.38 462.684 1221.25 443.252 1226.71 424C1239.9 377.541 1251.54 330.618 1264.15 284C1271.86 255.495 1281.03 226.922 1287 198L1225 198C1230.56 178.247 1238.26 157.327 1241 137L933 137M1660 198L1597 198C1592.72 218.746 1583.83 239.02 1581 260L1537 260C1532.85 260 1524.16 258.357 1520.73 261.028C1517.25 263.732 1516.44 272.905 1515.37 277C1511.58 291.549 1505.22 307.008 1504 322L1441 322C1436.28 342.599 1427.82 363.047 1425 384L1381 384C1376.44 384 1367.38 382.28 1363.51 385.028C1360.95 386.844 1360.58 391.195 1359.87 394C1358.11 401.011 1356.26 408.045 1354.29 415C1349.11 433.258 1344.66 451.716 1339.58 470C1336.23 482.048 1331.67 494.61 1330 507L1576 507C1575.36 514.79 1572.51 522.49 1570.42 530C1566.75 543.207 1562.77 556.577 1560 570L1683 570C1686.46 554.923 1690.75 539.876 1695 525C1696.33 520.354 1696.77 511.961 1700.51 508.603C1703.95 505.525 1711.72 507 1716 507L1747 507C1750.86 507 1757.04 508.161 1760.57 506.397C1764.41 504.478 1764.93 495.738 1766 492C1770.27 477.064 1775.74 461.361 1778 446L1716 446C1745.11 343.407 1770.09 239.65 1799 137L1709 137L1686 137C1683.27 137 1679.04 136.267 1676.7 138.028C1673.1 140.74 1672.71 148.92 1671.58 153C1667.5 167.682 1662.04 182.886 1660 198z"/>
<path style="fill:#000000; stroke:none;" d="M928 384L989 384C983.402 397.01 980.899 412.276 977.37 426C976.141 430.782 975.286 439.993 971.487 443.397C968.051 446.475 960.275 445 956 445L926 445C922.269 445 916.739 443.998 913.279 445.603C908.921 447.625 908.46 456.879 907.29 461C902.956 476.271 897.31 492.302 895 508L1031 508L1067 508C1070.65 508 1077.34 509.261 1080.44 506.972C1083.5 504.708 1084.2 497.492 1085.12 494C1088.1 482.66 1091.09 471.319 1094.15 460C1102.8 428.022 1111.46 396.039 1119.88 364C1123.59 349.904 1129.05 335.444 1131 321L1069 321C1075.2 301.611 1082.28 280.18 1085 260L1148 260C1150.77 246.577 1154.75 233.207 1158.42 220C1160.51 212.49 1163.36 204.79 1164 197L1027 197L992 197C988.456 197 981.695 195.72 978.728 198.028C975.65 200.422 975.296 207.455 974.29 211C970.9 222.946 967.674 234.963 964.626 247C956.24 280.109 946.801 312.967 938.116 346C934.793 358.636 930.648 371.207 928 384M432 383L388 383C383.721 383 375.166 381.379 371.563 384.028C367.619 386.928 367.053 396.547 365.849 401C361.81 415.93 357.128 430.848 354 446L444 446L468 446C470.734 446 474.961 446.733 477.297 444.972C479.759 443.117 480.176 438.774 480.873 436C482.722 428.654 484.642 421.287 486.71 414C491.892 395.742 496.343 377.284 501.424 359C504.821 346.778 509.966 333.657 511 321L466 321C461.658 321 452.312 319.24 448.728 322.028C445.251 324.732 444.437 333.905 443.371 338C439.583 352.549 433.225 368.008 432 383M1547 383L1503 383C1498.73 383 1490.15 381.375 1486.56 384.028C1482.83 386.79 1481.96 396.694 1480.87 401C1477.1 416.017 1472.13 430.833 1469 446L1559 446L1583 446C1585.78 446 1590.05 446.733 1592.44 444.972C1594.89 443.162 1595.17 438.723 1595.88 436C1597.82 428.653 1599.86 421.333 1601.85 414C1607.26 394.019 1612.6 374.014 1617.88 354C1620.72 343.257 1625.09 332.101 1626 321L1581 321C1576.66 321 1567.31 319.24 1563.73 322.028C1560.37 324.641 1559.82 333.079 1558.71 337C1554.55 351.657 1548.32 367.825 1547 383z"/>
<path style="fill:#fff; stroke:none;" d="M1006 322C1003.26 342.35 995.607 363.243 990 383L1034 383C1038.27 383 1046.85 384.625 1050.44 381.972C1054 379.337 1054.84 370.101 1055.87 366C1059.47 351.691 1065.8 336.72 1067 322L1006 322z"/>
<path style="fill:#200000; stroke:none;" d="M116 752C114.546 759.043 111.96 765.875 111 773L89 773C77.4554 823.358 59.4695 872.411 49 923L70 923C68.9572 930.087 66.4509 936.971 65 944L86 944C84.54 951.055 81.9636 957.844 81 965L179 965L211 965C216.142 965 221.869 965.706 226.945 964.852C235.553 963.404 231.125 949.216 237.419 945.028C240.38 943.057 245.621 944 249 944L278 944C276.54 951.055 273.964 957.844 273 965L371 965L403 965C408.142 965 413.869 965.706 418.945 964.852C427.018 963.494 423.752 950.315 428.703 945.603C432.737 941.764 444.739 944 450 944C447.451 950.757 445.975 958.041 444 965L530 965C531.451 957.971 533.957 951.087 535 944L557 944C554.173 950.57 552.598 958.03 551 965L722 965C724.011 955.258 726.761 945.582 729.424 936C730.363 932.623 730.898 927.091 733.564 924.603C735.74 922.574 739.267 923.006 742 923L761 923L840 923C838.957 930.087 836.451 936.971 835 944L856 944C854.54 951.055 851.964 957.844 851 965L956 965L986 965C989.731 965 995.261 966.002 998.721 964.397C1004.88 961.538 1002.03 950.051 1006.7 945.603C1011.77 940.783 1022.24 947.538 1026.91 942.397C1029.38 939.678 1029.75 934.433 1030.63 931C1032.78 922.643 1035.22 914.357 1037.37 906C1042.7 885.288 1048.45 864.683 1053.88 844C1056.32 834.749 1059.72 825.496 1061 816L1083 816C1081.23 829.136 1076.25 842.187 1072.88 855C1065.08 884.697 1057.38 914.459 1049 944L1071 944C1068.4 950.803 1066.97 957.997 1065 965L1151 965C1152.32 955.206 1155.91 945.566 1158.37 936C1163.87 914.613 1169.66 893.276 1175.58 872C1177.7 864.366 1179.66 856.673 1181.63 849C1182.45 845.811 1183.04 840.949 1185.56 838.603C1189.57 834.883 1200.84 837 1206 837C1199.22 860.886 1192.72 884.931 1186.63 909C1183.73 920.438 1178.96 932.213 1178 944L1199 944C1196.45 950.757 1194.97 958.041 1193 965L1471 965C1472.45 957.971 1474.96 951.087 1476 944L1498 944C1495.17 950.57 1493.6 958.03 1492 965L1578 965C1579.01 957.513 1581.99 950.475 1583 943C1579.11 948.46 1577.54 957.372 1577 964L1494 964C1495.45 956.971 1497.96 950.087 1499 943L1475 943C1473.39 950.01 1470.96 956.853 1470 964L1195 964C1196.61 956.99 1199.04 950.147 1200 943L1179 943C1185.08 921.409 1190.42 899.611 1196.42 878C1200.16 864.549 1205.86 849.919 1207 836L1191 836.001C1188.66 836.017 1185.68 835.705 1183.93 837.603C1181.68 840.053 1181.16 844.88 1180.37 848C1178.43 855.678 1176.45 863.381 1174.29 871C1168.36 891.902 1162.78 912.957 1157.37 934C1154.85 943.801 1150.83 953.894 1150 964L1067 964C1068.45 956.957 1071.04 950.125 1072 943L1051 943C1057.69 913.826 1066.33 884.898 1074.15 856C1077.69 842.923 1083.72 828.598 1084 815L1060 815C1054.02 843.972 1044.34 872.31 1037.13 901C1034.85 910.036 1032.25 918.989 1029.88 928C1028.85 931.938 1028.44 937.372 1025.91 940.682C1021.2 946.835 1009.96 939.237 1005.09 944.603C1000.77 949.36 1003.53 959.315 997.721 962.972C994.642 964.91 989.472 964 986 964L958 964L852 964C854.481 957.425 856.693 950.043 857 943L837 943C837.959 935.879 840.846 929.226 841 922L762 922L741 922C738.457 922.001 734.749 921.413 732.564 923.028C729.815 925.059 729.285 930.901 728.424 934C725.702 943.794 722.357 953.919 721 964L553 964C554.451 956.971 556.957 950.087 558 943L534 943C532.393 950.01 529.962 956.853 529 964L446 964C447.607 956.99 450.038 950.147 451 943L434.001 943.001C431.686 943.017 428.804 942.714 427.089 944.603C422.334 949.839 425.844 962.418 416.981 963.852C402.12 966.256 385.067 964 370 964L274 964C276.481 957.425 278.693 950.043 279 943L249 943C245.366 943 239.761 941.963 236.419 943.603C228.989 947.25 234.927 962.243 224.981 963.852C210.12 966.256 193.067 964 178 964L82 964C84.4806 957.425 86.6929 950.043 87 943L67 943C67.9589 935.879 70.8461 929.226 71 922L51 922C52.6843 910.552 56.8279 899.167 59.8488 888C66.964 861.697 73.9555 835.353 80.8843 809C83.9168 797.466 88.2635 785.803 90 774L112 774C113.46 766.945 116.036 760.156 117 753L264 753C262.951 760.129 260.151 766.706 260 774L304 774C305.46 766.945 308.036 760.156 309 753L456 753C454.951 760.129 452.151 766.706 452 774L468 773.999C470.327 773.983 473.333 774.301 475.062 772.397C479.444 767.572 476.56 755.366 484.058 753.318C491.429 751.304 501.37 753 509 753L563 753C562.041 760.121 559.154 766.774 559 774L574 774C576.237 773.995 579.375 774.445 581.272 772.972C587.714 767.972 582.329 754.004 593.005 753.059C602.191 752.245 611.776 753 621 753L675 753L841 753C839.951 760.129 837.151 766.706 837 774L853 773.999C855.327 773.983 858.333 774.301 860.062 772.397C864.444 767.572 861.56 755.366 869.058 753.318C876.429 751.304 886.37 753 894 753L948 753C947.041 760.121 944.154 766.774 944 774L959.999 773.999C962.279 773.983 965.201 774.307 966.861 772.397C971.202 767.401 968.41 755.39 976.055 753.318C983.727 751.238 994.061 753 1002 753L1057 753C1051.29 750.605 1043.15 752 1037 752L995 752C988.972 752 978.8 750.042 973.279 752.603C967.177 755.434 969.813 766.946 965.272 771.397C961.461 775.132 950.014 773 945 773C946.043 765.913 948.549 759.029 950 752L893 752C885.203 752 874.636 750.125 867.144 752.318C860.879 754.152 862.518 766.166 859.062 770.682C855.538 775.287 843.221 773 838 773C838.964 765.844 841.54 759.055 843 752L675 752L619 752C609.786 752 600.194 751.228 591.018 752.059C581.795 752.894 585.506 766.267 580.272 771.397C576.461 775.132 565.014 773 560 773C561.043 765.913 563.549 759.029 565 752L508 752C500.203 752 489.636 750.125 482.144 752.318C475.879 754.152 477.518 766.166 474.062 770.682C470.538 775.287 458.221 773 453 773C453.964 765.844 456.54 759.055 458 752L308 752C306.546 759.043 303.96 765.875 303 773L261 773C261.964 765.844 264.54 759.055 266 752L116 752M1058 752C1062.47 753.875 1068.19 753 1073 753L1104 753L1213 753L1590 753C1588.95 760.129 1586.15 766.706 1586 774L1631 774C1632.46 766.945 1635.04 760.156 1636 753L1783 753C1781.95 760.129 1779.15 766.706 1779 774L1799 774C1797.54 781.055 1794.96 787.844 1794 795L1815 795C1809.79 807.114 1807.49 821.242 1804.12 834C1798.39 855.689 1792.22 877.274 1786.63 899C1784.14 908.691 1781.43 918.323 1778.88 928C1777.85 931.938 1777.44 937.372 1774.91 940.682C1770.37 946.615 1760.08 939.975 1754.7 944.028C1749.17 948.202 1752.85 959.114 1746.72 962.972C1743.64 964.91 1738.47 964 1735 964L1707 964L1601 964C1603.48 957.425 1605.69 950.043 1606 943L1584 943C1589.96 945.5 1598.56 944 1605 944C1603.54 951.055 1600.96 957.844 1600 965L1705 965L1735 965C1738.73 965 1744.26 966.002 1747.72 964.397C1753.88 961.538 1751.03 950.051 1755.7 945.603C1760.77 940.783 1771.24 947.538 1775.91 942.397C1778.57 939.473 1778.91 933.692 1779.88 930L1787.88 900C1793.85 877.305 1800.02 854.651 1806.15 832C1809.52 819.55 1814.12 806.758 1816 794L1795 794C1797.56 787.218 1799.03 779.98 1801 773L1780 773C1780.96 765.844 1783.54 759.055 1785 752L1635 752C1633.55 759.043 1630.96 765.875 1630 773L1587 773C1587.96 765.844 1590.54 759.055 1592 752L1058 752z"/>
<path style="fill:#000000; stroke:none;" d="M117 753C115.546 760.043 112.96 766.875 112 774L90 774C82.3948 807.174 72.6903 840.202 63.5756 873C59.221 888.669 52.4126 905.799 51 922L71 922C70.6719 929.181 67.5855 935.832 67 943L87 943C86.419 950.113 83.9307 957.146 82 964L179 964L210 964C215.142 964 220.869 964.706 225.945 963.852C234.553 962.404 230.125 948.216 236.419 944.028C239.573 941.929 245.392 943 249 943L279 943C278.419 950.113 275.931 957.146 274 964L371 964L402 964C407.142 964 412.869 964.706 417.945 963.852C426.018 962.494 422.752 949.315 427.703 944.603C429.629 942.77 432.544 943.018 435 943.001L451 943C449.549 950.029 447.043 956.913 446 964L529 964C530.451 956.971 532.957 950.087 534 943L558 943C556.393 950.01 553.962 956.853 553 964L721 964C723.011 954.258 725.761 944.582 728.424 935C729.363 931.623 729.897 926.091 732.564 923.603C734.74 921.574 738.267 922.006 741 922L761 922L841 922C840.672 929.181 837.586 935.832 837 943L857 943C856.419 950.113 853.931 957.146 852 964L956 964L985 964C988.731 964 994.261 965.002 997.721 963.397C1003.88 960.538 1001.03 949.051 1005.7 944.603C1010.77 939.783 1021.24 946.538 1025.91 941.397C1028.38 938.678 1028.75 933.433 1029.63 930C1031.78 921.643 1034.22 913.357 1036.37 905C1041.7 884.288 1047.45 863.683 1052.88 843C1055.32 833.749 1058.72 824.496 1060 815L1084 815C1083.44 827.912 1077.88 841.577 1074.42 854C1069.62 871.281 1065.38 888.718 1060.58 906C1057.22 918.078 1052.82 930.602 1051 943L1072 943C1070.54 950.055 1067.96 956.844 1067 964L1150 964C1151.32 954.206 1154.91 944.566 1157.37 935C1162.87 913.613 1168.66 892.276 1174.58 871C1176.7 863.366 1178.66 855.673 1180.63 848C1181.45 844.811 1182.04 839.95 1184.56 837.603C1188.82 833.652 1201.49 836 1207 836C1205.73 845.451 1202.31 854.782 1199.88 864C1192.98 890.241 1184.48 916.43 1179 943L1200 943C1198.55 950.029 1196.04 956.913 1195 964L1470 964C1471.45 956.971 1473.96 950.087 1475 943L1499 943C1497.39 950.01 1494.96 956.853 1494 964L1577 964C1577.69 958.909 1578.87 947.115 1583.43 944.028C1588.31 940.722 1600.23 943 1606 943C1605.42 950.113 1602.93 957.146 1601 964L1705 964L1734 964C1737.73 964 1743.26 965.002 1746.72 963.397C1753.34 960.327 1749.41 948.025 1755.42 944.028C1760.65 940.543 1770.52 946.233 1774.91 941.397C1777.57 938.473 1777.91 932.692 1778.88 929L1786.88 899C1795.98 864.409 1804.11 829.061 1815 795L1794 795C1795.45 787.957 1798.04 781.125 1799 774L1779 774C1779.32 766.772 1782.38 760.151 1783 753L1636 753C1634.55 760.043 1631.96 766.875 1631 774L1586 774C1586.32 766.772 1589.38 760.151 1590 753L1180 753L1044 753C1021.96 753 998.955 751.072 977.018 753.059C967.795 753.894 971.506 767.267 966.272 772.397C962.229 776.36 949.355 774 944 774C944.328 766.819 947.414 760.168 948 753L893 753C885.496 753 875.357 751.207 868.144 753.318C861.358 755.305 864.071 768.072 859.436 772.397C855.198 776.351 842.497 774 837 774C837.315 766.772 840.376 760.151 841 753L675 753L620 753C610.786 753 601.194 752.228 592.018 753.059C582.795 753.894 586.506 767.267 581.272 772.397C577.229 776.36 564.355 774 559 774C559.328 766.819 562.414 760.168 563 753L508 753C500.496 753 490.357 751.207 483.144 753.318C476.358 755.305 479.071 768.072 474.436 772.397C470.198 776.351 457.497 774 452 774C452.315 766.772 455.376 760.151 456 753L309 753C307.546 760.043 304.96 766.875 304 774L260 774C260.315 766.772 263.376 760.151 264 753L117 753z"/>
<path style="fill:#fff; stroke:none;" d="M127 794L112.001 794.001C110.012 794.015 107.409 793.72 105.728 795.028C103.561 796.713 103.261 800.539 102.576 803C100.722 809.654 98.957 816.333 97.1512 823C90.0262 849.308 83.3896 875.766 76 902L97 902C95.9572 909.087 93.4509 915.971 92 923L199 923C200.46 915.945 203.036 909.156 204 902L218.999 901.999C220.988 901.985 223.591 902.28 225.272 900.972C227.222 899.456 227.562 896.227 228.127 894C229.318 889.305 230.678 884.66 232 880L202 880C198.563 880 192.492 878.865 189.564 881.028C183.826 885.268 187.921 898.193 180.772 901.397C175.836 903.609 167.342 902 162 902L119 902C126.35 876.1 133.27 850.038 140.116 824C141.869 817.333 143.679 810.681 145.374 804C146.122 801.054 146.672 796.856 149.419 795.028C153.485 792.322 162.29 794 167 794L212 794C209.367 800.978 207.513 808.691 206 816L236 816C239.339 816 245.467 817.154 248.272 814.972C250.222 813.456 250.562 810.227 251.127 808C252.318 803.305 253.678 798.66 255 794L233 794C235.423 787.671 237.447 780.771 238 774L161 774L141 774C138.457 774.001 134.749 773.413 132.564 775.028C128.548 777.996 127.382 789.321 127 794M319 794L297 794C288.702 830.196 278.137 866.277 268 902L289 902C287.957 909.087 285.451 915.971 284 923L391 923C392.46 915.945 395.036 909.156 396 902L410.999 901.999C412.988 901.985 415.591 902.28 417.272 900.972C419.435 899.29 419.748 895.467 420.374 893C422.068 886.325 423.829 879.625 425.71 873C433.156 846.765 439.555 820.237 447 794L425 794C427.423 787.671 429.447 780.771 430 774L353 774L333 774C330.457 774.001 326.749 773.413 324.564 775.028C320.548 777.996 319.382 789.321 319 794M495 774C487.431 810.671 475.637 846.786 466.116 883C462.712 895.948 457.164 909.655 456 923L499 923C502.934 893.788 517.065 866.222 521 837L542 837C540.483 844.348 537.612 851.509 537 859C541.974 859 553.223 861.116 557.272 857.972C562.294 854.074 560.206 844.195 563.938 839.318C567.461 834.712 579.779 837 585 837C579.085 865.659 570.912 895.128 562 923L592 923C595.437 923 601.508 924.135 604.436 921.972C607.026 920.058 607.467 914.9 608.29 912C610.929 902.702 613.325 893.33 615.849 884C625.703 847.573 637.373 810.953 645 774L602 774C601 778.83 599.874 790.058 595.57 792.972C591.025 796.05 580.347 794 575 794C573.49 801.315 570.648 808.563 570 816L548 816L554 794L533 794C534.849 787.435 537.089 780.762 538 774L495 774M687 774C685.634 784.133 681.883 794.093 679.374 804C672.856 829.737 665.782 855.371 658.849 881C655.128 894.754 649.903 908.869 648 923L691 923C692.36 912.901 695.849 902.811 698.576 893C699.529 889.57 699.832 884.152 702.564 881.603C706.668 877.775 718.717 880 724 880L767 880C772.217 880 780.922 881.667 785.697 879.397C791.836 876.478 788.905 864.95 793.564 860.603C798.777 855.74 809.229 862.51 814.146 857.397C817.77 853.628 818.62 843.984 819.873 839C823.66 823.945 827.762 808.934 832 794L810 794C812.423 787.671 814.447 780.771 815 774L687 774M880 774C875.905 793.839 869.847 813.486 864.424 833C858.051 855.934 852.454 879.088 846 902L867 902C865.957 909.087 863.451 915.971 862 923L969 923C970.46 915.945 973.036 909.156 974 902L988.999 901.999C990.988 901.985 993.591 902.28 995.272 900.972C997.83 898.983 998.117 893.919 998.884 891C1000.99 882.987 1003.31 875.024 1005.37 867C1013.33 836.038 1023.54 805.309 1030 774L987 774C980.456 805.619 970.096 836.767 961.884 868C959.782 875.997 957.793 884.034 955.576 892C954.783 894.847 954.209 899.186 951.57 900.972C947.553 903.691 938.674 902 934 902L889 902C897.008 873.781 904.425 845.368 911.884 817C915.591 802.904 921.053 788.444 923 774L880 774M1073 774L1068 794L1111 794C1102.51 820.544 1096.23 848.053 1089.12 875C1085.02 890.496 1078.31 907.01 1077 923L1119 923C1125.45 894.856 1133.69 866.825 1141.42 839C1145.5 824.332 1150.97 809.097 1153 794L1183 794C1186.44 794 1192.5 795.132 1195.44 792.972C1199.6 789.909 1200.61 778.797 1201 774L1073 774M1244 774C1242.28 786.751 1237.51 799.578 1234.15 812C1227.66 835.985 1221.34 860.015 1214.85 884C1211.45 896.572 1206.13 910.019 1205 923L1314 923L1342 923C1345.22 923 1350.68 924.006 1353.44 921.972C1357.71 918.814 1358.6 906.966 1360 902L1253 902C1256.9 888.253 1262.84 873.248 1264 859L1326 859L1342 859C1344.23 858.995 1347.38 859.446 1349.27 857.972C1351.22 856.456 1351.56 853.227 1352.13 851C1353.32 846.305 1354.68 841.66 1356 837L1271 837C1272.37 826.867 1276.12 816.907 1278.63 807C1279.55 803.365 1280.01 797.295 1283.42 795.028C1285.76 793.471 1289.34 794.001 1292 794L1312 794L1389 794L1394 774L1244 774M1436 774C1434.68 783.794 1431.09 793.434 1428.63 803C1421.75 829.743 1414.14 856.294 1407.12 883C1403.67 896.111 1398.81 909.562 1397 923L1440 923C1442.91 901.371 1454.23 880.733 1456 859L1520 859C1518.81 867.104 1515.97 875.08 1513.88 883C1510.38 896.333 1507.2 909.869 1503 923L1533 923C1536.44 923 1542.51 924.135 1545.44 921.972C1549.03 919.316 1549.8 910.119 1550.88 906C1554.95 890.596 1560.87 874.796 1563 859L1542 859C1543.52 853.6 1544.43 840.064 1550.14 837.603C1555.33 835.371 1564.98 839.841 1569.07 835.397C1571.88 832.337 1572.39 825.903 1573.37 822C1575.75 812.627 1578.36 803.301 1581 794L1559 794C1561.42 787.671 1563.45 780.771 1564 774L1436 774M1646 794L1631 794.001C1629.01 794.015 1626.41 793.72 1624.73 795.028C1622.04 797.119 1621.59 802.906 1620.71 806C1617.89 815.926 1613.9 826.724 1613 837L1634 837C1631.7 844.203 1629.53 851.594 1628 859L1713 859C1711.47 869.412 1707.79 879.815 1705.12 890C1704.25 893.288 1703.6 898.919 1700.57 900.972C1696.55 903.691 1687.67 902 1683 902L1638 902L1644 880L1614 880C1610.66 880 1604.54 878.847 1601.73 881.028C1597.24 884.51 1596.49 896.715 1595 902L1616 902C1614.96 909.087 1612.45 915.971 1611 923L1718 923C1719.46 915.945 1722.04 909.156 1723 902L1738 901.999C1739.99 901.985 1742.59 902.28 1744.27 900.972C1747.01 898.84 1747.3 893.135 1748.15 890C1750.9 879.826 1754.59 869.455 1756 859L1735 859L1741 837L1656 837C1657.37 826.867 1661.12 816.907 1663.63 807C1664.55 803.365 1665.01 797.295 1668.42 795.028C1672.48 792.322 1681.29 794 1686 794L1731 794C1728.37 800.978 1726.51 808.691 1725 816L1755 816C1758.34 816 1764.47 817.154 1767.27 814.972C1769.22 813.456 1769.56 810.227 1770.13 808C1771.32 803.305 1772.68 798.66 1774 794L1752 794C1754.42 787.671 1756.45 780.771 1757 774L1680 774L1660 774C1657.46 774.001 1653.75 773.413 1651.56 775.028C1647.55 777.996 1646.38 789.321 1646 794z"/>
<path style="fill:#000000; stroke:none;" d="M311 902L357 902C361.346 902 370.683 903.759 374.272 900.972C376.403 899.318 376.897 895.438 377.576 893C379.515 886.034 381.363 879.012 383.127 872C389.683 845.934 396.713 819.871 404 794L358 794C353.589 794 344.38 792.256 340.703 795.028C338.458 796.72 338.017 800.467 337.374 803C335.678 809.681 333.869 816.333 332.116 823C325.211 849.26 316.502 875.414 311 902M708 859L772 859C773.097 850.862 776.03 842.932 778.116 835C781.71 821.33 785.168 807.606 789 794L743 794C738.589 794 729.38 792.256 725.703 795.028C721.944 797.861 721.504 806.723 720.29 811C715.951 826.288 709.38 843.172 708 859M1463 837L1527 837C1528.94 822.629 1534.07 807.959 1538 794L1492 794C1487.59 794 1478.38 792.256 1474.7 795.028C1471.84 797.186 1471.44 802.772 1470.63 806C1468.06 816.137 1463.85 826.559 1463 837z"/>
</svg>
