<svg xmlns="http://www.w3.org/2000/svg" id="Capa_1" data-name="Capa 1" viewBox="0 0 512 512"><defs><style>.cls-2{fill:#0f0}</style></defs><path fill="#6700da" d="M355.44 285.74v135.71a44.69 44.69 0 0038.92-23.74 8.87 8.87 0 004.73 1.39H401a9.52 9.52 0 007.59-4 13.31 13.31 0 002.54-7.91V257.74h-5a4.9 4.9 0 01-4.89-5v-1.65a140.75 140.75 0 00-281.49 0v1.65a4.89 4.89 0 01-4.89 5h-5v129.48a13.11 13.11 0 002.54 7.91 9.49 9.49 0 007.58 4h1.88a8.93 8.93 0 004.42-1.16 44.7 44.7 0 0038.84 23.51V285.74a44.61 44.61 0 00-33.14 15.35v-38.58a9.48 9.48 0 007.59-8.46l.09-.46v-1.49a120.84 120.84 0 11241.68 0v1.06a9.53 9.53 0 007.68 9.34v39a44.55 44.55 0 00-33.58-15.76z"/><path d="M406.07 257.74h9.51a4.91 4.91 0 004.91-4.82v-1.79a160.06 160.06 0 00-320.11 0v1.79a4.89 4.89 0 004.9 4.82h9.51a4.89 4.89 0 004.89-5v-1.65a140.75 140.75 0 01281.49 0v1.65a4.9 4.9 0 004.9 5zM91.81 362.07A16.32 16.32 0 00108 378.39v-49.6a16.33 16.33 0 00-16.14 16.33zM413 378.39a16.33 16.33 0 0016.14-16.32v-16.95A16.34 16.34 0 00413 328.79zM168 285.71v136.18h16.45a4.66 4.66 0 004.66-4.65V290.36a4.65 4.65 0 00-4.66-4.65zM331.15 290.36v126.88a4.65 4.65 0 004.65 4.65h16.46V285.71H335.8a4.65 4.65 0 00-4.65 4.65z" class="cls-2"/></svg>