<?xml version="1.0" standalone="yes"?>
<svg xmlns="http://www.w3.org/2000/svg" width="2000" height="1000">
<path style="fill:transparent; stroke:none;" d="M0 0L0 1000L2000 1000L2000 0L0 0z"/>
<path style="fill:#000000; stroke:none;" d="M372 74L372 136L312 136L312 197L249 197L249 259L188 259L188 321L125 321L125 571L188 571L188 631L435 631L435 693L684 693L684 631L807 631L807 693L1241 693L1241 631L1302 631L1302 571C1303.95 577.584 1303 585.166 1303 592L1303 631L1550 631L1550 693L1799 693L1799 631L1860 631L1860 445L1799 445L1799 136L1737 136L1737 74L1487 74L1487 136L1427 136L1427 197L1364 197L1364 259L1303 259L1303 321C1299.48 309.083 1302 293.419 1302 281L1302 197L1241 197L1241 136L1179 136L1179 74L745 74L745 136L622 136L622 74L372 74z"/>
<path style="fill:#fff; stroke:none;" d="M436 137L436 198L373 198L373 260L313 260L313 322L250 322L250 384L189 384L189 507L436 507L436 570L559 570L559 507L621 507L621 446L559 446L559 137L436 137M808 137L808 198L746 198L746 507L808 507L808 570L1116 570L1116 507L1178 507L1178 198L1116 198L1116 137L808 137M1551 137L1551 198L1488 198L1488 260L1428 260L1428 322L1365 322L1365 384L1304 384L1304 507L1551 507L1551 570L1674 570L1674 507L1736 507L1736 446L1674 446L1674 137L1551 137z"/>
<path style="fill:#000000; stroke:none;" d="M869 197L869 384L930 384L930 445L869 445L869 508L1055 508L1055 321L993 321L993 260L1055 260L1055 197L869 197M372 321L372 383L312 383L312 446L436 446L436 321L372 321M1487 321L1487 383L1427 383L1427 446L1551 446L1551 321L1487 321z"/>
<path style="fill:#fff; stroke:none;" d="M931 322L931 383L992 383L992 322L931 322z"/>
<path style="fill:#000000; stroke:none;" d="M144 752L144 773L123 773L123 923L144 923L144 944L166 944L166 965L316 965L316 944L359 944L359 965L509 965L509 944L530 944L530 965L616 965L616 944L637 944L637 965L808 965L808 923L915 923L915 944L937 944L937 965L1087 965L1087 944L1108 944L1108 816L1129 816L1129 944L1150 944L1150 965L1236 965L1236 837L1257 837L1257 944L1278 944L1278 965L1557 965L1557 944L1578 944L1578 965L1664 965L1664 944L1686 944L1686 965L1836 965L1836 944L1857 944L1857 794L1836 794L1836 773L1814 773L1814 752L1664 752L1664 773L1621 773L1621 752L1001 752L1001 773L979 773L979 752L894 752L894 773L872 773L872 752L616 752L616 773L594 773L594 752L509 752L509 773L487 773L487 752L337 752L337 773L294 773L294 752L144 752z"/>
<path style="fill:#fff; stroke:none;" d="M166 774L166 794L145 794L145 902L166 902L166 923L273 923L273 902L294 902L294 880L251 880L251 902L187 902L187 794L251 794L251 816L294 816L294 794L273 794L273 774L166 774M359 774L359 794L338 794L338 902L359 902L359 923L466 923L466 902L487 902L487 794L466 794L466 774L359 774M531 774L531 923L573 923L573 837L594 837L594 859L616 859L616 837L637 837L637 923L680 923L680 774L637 774L637 794L616 794L616 816L594 816L594 794L573 794L573 774L531 774M723 774L723 923L765 923L765 880L851 880L851 859L872 859L872 794L851 794L851 774L723 774M916 774L916 902L937 902L937 923L1044 923L1044 902L1065 902L1065 774L1022 774L1022 902L958 902L958 774L916 774M1108 774L1108 794L1150 794L1150 923L1193 923L1193 794L1236 794L1236 774L1108 774M1279 774L1279 923L1428 923L1428 902L1321 902L1321 859L1407 859L1407 837L1321 837L1321 794L1428 794L1428 774L1279 774M1472 774L1472 923L1514 923L1514 859L1578 859L1578 923L1621 923L1621 859L1600 859L1600 837L1621 837L1621 794L1600 794L1600 774L1472 774M1686 774L1686 794L1665 794L1665 837L1686 837L1686 859L1771 859L1771 902L1707 902L1707 880L1665 880L1665 902L1686 902L1686 923L1793 923L1793 902L1814 902L1814 859L1793 859L1793 837L1707 837L1707 794L1771 794L1771 816L1814 816L1814 794L1793 794L1793 774L1686 774z"/>
<path style="fill:#000000; stroke:none;" d="M380 794L380 902L444 902L444 794L380 794M765 794L765 859L829 859L829 794L765 794M1514 794L1514 837L1578 837L1578 794L1514 794z"/>
</svg>
