<svg xmlns="http://www.w3.org/2000/svg" id="Capa_1" data-name="Capa 1" viewBox="0 0 512 512"><defs><style>.cls-1{fill:#0f0}.cls-2{fill:#6700da}.cls-3{fill:#00ff5f}</style></defs><path d="M367.59 133.78l-1-.05a3.32 3.32 0 00-3 3.6l1.1 12.07a3.28 3.28 0 002.42 2.84 72.14 72.14 0 0145.91 36.62 3.23 3.23 0 003.16 1.73l12.29-1.12a3.32 3.32 0 002.73-4.65 90.38 90.38 0 00-63.61-51.04z" class="cls-1"/><path d="M368.28 98.74h-.72a3.31 3.31 0 00-3 3.59l1.08 11.89a3.26 3.26 0 002.75 2.91 101.58 101.58 0 0179.25 64.09 3.25 3.25 0 003.33 2.08l11.91-1.09a3.27 3.27 0 002.48-1.51 3.35 3.35 0 00.34-2.87 120.39 120.39 0 00-97.42-79.09zM88.53 423.21H102a25.74 25.74 0 0025.28-20.93l5.53-16.28h-70v11.5a25.71 25.71 0 0025.72 25.71zM359 423.21h13.51a25.71 25.71 0 0025.71-25.71V386h-70l5.5 16.24A25.73 25.73 0 00359 423.21z" class="cls-2"/><path d="M132.81 386.04l1.88-5.56H62.81v5.56h70z" class="cls-1"/><path d="M134.69 380.48l4.62-13.63h-76.5v13.63h71.88z" class="cls-3"/><path d="M139.31 366.85l12.93-38.13a77.33 77.33 0 0021.1-11.39 22 22 0 0113.25-4.53h87.89a21.91 21.91 0 0113.23 4.53 77.68 77.68 0 0021.11 11.39l12.92 38.13h76.5v-66.59a77.54 77.54 0 0013.55-56c-4.92-35.44-34.39-63.32-70-66.47A77.5 77.5 0 00282 198.08a14.09 14.09 0 01-9.54 3.6h-83.91a14.13 14.13 0 01-9.54-3.6 77.45 77.45 0 00-59.71-20.29c-35.65 3.15-65.11 31-70 66.47a77.55 77.55 0 0013.54 56v66.59zm201.13-67.91A17.93 17.93 0 11358.36 281a17.93 17.93 0 01-17.92 17.94zm33.34-69.2a17.93 17.93 0 11-17.92 17.93 17.92 17.92 0 0117.92-17.93zm-33.34-33.34a17.93 17.93 0 11-17.93 17.93 17.91 17.91 0 0117.93-17.93zm-33.33 33.34a17.93 17.93 0 11-17.93 17.93 17.94 17.94 0 0117.93-17.93zm-181.38-37.66A62.91 62.91 0 1162.81 255a62.9 62.9 0 0162.92-62.92z" class="cls-2"/><path d="M398.24 380.48v-13.63h-76.5l4.62 13.63h71.88z" class="cls-3"/><path d="M398.24 386.04v-5.56h-71.88l1.88 5.56h70z" class="cls-1"/><path fill="#92ffaf" d="M62.81 255a62.91 62.91 0 1062.92-62.91A62.9 62.9 0 0062.81 255zm106.86-14.4v28.79h-29.54v29.55h-28.81v-29.55H81.78V240.6h29.54v-29.55h28.81v29.55z"/><path d="M140.13 298.94v-29.55h29.54V240.6h-29.54v-29.55h-28.81v29.55H81.78v28.79h29.54v29.55h28.81zM322.51 214.33a17.93 17.93 0 1017.93-17.93 17.92 17.92 0 00-17.93 17.93zM322.51 281a17.93 17.93 0 1017.93-17.93A17.93 17.93 0 00322.51 281zM289.18 247.67a17.93 17.93 0 1017.93-17.93 17.92 17.92 0 00-17.93 17.93zM355.86 247.67a17.92 17.92 0 1017.92-17.93 17.92 17.92 0 00-17.92 17.93z" class="cls-1"/></svg>