<svg xmlns="http://www.w3.org/2000/svg" id="Capa_1" data-name="Capa 1" viewBox="0 0 512 512"><defs><style>.cls-1{fill:#6700da}</style></defs><path d="M60.18 89.75a11.65 11.65 0 00-11.65 11.64v253.53a11.65 11.65 0 0011.65 11.64H451.9a11.64 11.64 0 0011.64-11.64V101.39a11.64 11.64 0 00-11.64-11.64zM437.46 324H74.62V115h362.84zM288.6 371.78H219c-.46 0-1 .66-1.4 1.88l-9.38 25.45c-2.07 5.61-2.24 17.1-.18 17.1h91.56c2.05 0 1.89-11.49-.18-17.1L290 373.66c-.45-1.22-.94-1.88-1.4-1.88z" class="cls-1"/><path fill="#fff" d="M74.62 324h362.84V115H74.62zm178.94-68.78h-79.19v-9.17h79.19zm90 50.68h-85v-7h85zm78.22-12H258.51V287h163.23zm0-11.93H258.51v-6.95h163.23zm0-11.94H258.51v-6.95h163.23zm-163.27-14.8v-9.17h79.2v9.17zm163.34 0h-79.2v-9.17h79.2zM90.23 131.77h331.62v106.61H90.23zm0 114.29h79.19v9.17H90.23zm0 17.62h163.23V310H90.23z"/><path fill="#00ff5f" d="M90.23 309.99l331.62-.64V131.77H90.23v178.22z"/></svg>