<svg xmlns="http://www.w3.org/2000/svg" id="Capa_1" data-name="Capa 1" viewBox="0 0 512 512"><defs><style>.cls-1{fill:#0f0}.cls-2{fill:#6700da}</style></defs><path d="M304.2 131.56l-1.12-.17a3.91 3.91 0 00-3.9 3.9v14.28a3.86 3.86 0 002.54 3.59A84.94 84.94 0 01351.64 201a3.82 3.82 0 003.53 2.37h14.54a3.89 3.89 0 003.17-1.65 3.83 3.83 0 00.52-3.51 106.41 106.41 0 00-69.2-66.65z" class="cls-1"/><path d="M308.77 90.52l-.85-.09a3.91 3.91 0 00-3.92 3.89v14.07a3.83 3.83 0 002.91 3.7A119.63 119.63 0 01393 195.77a3.84 3.84 0 003.69 2.79h14.09a3.87 3.87 0 003.06-1.5 3.82 3.82 0 00.7-3.33C401.77 142.49 360.22 102 308.77 90.52zM175.79 344.18a78.39 78.39 0 10156.77 0v-73.24H175.79zM175.79 255.4v5.26h156.77v-5.26a78.39 78.39 0 10-156.77 0zm87.09-41.85v22.77c0 4.07-3.9 7.37-8.71 7.37s-8.71-3.3-8.71-7.37v-22.77c0-4.08 3.91-7.37 8.71-7.37s8.71 3.29 8.71 7.37z" class="cls-2"/><path d="M245.46 213.55v22.77c0 4.07 3.91 7.37 8.71 7.37s8.71-3.3 8.71-7.37v-22.77c0-4.08-3.9-7.37-8.71-7.37s-8.71 3.29-8.71 7.37z" class="cls-1"/></svg>