<svg xmlns="http://www.w3.org/2000/svg" id="Capa_1" data-name="Capa 1" viewBox="0 0 512 512"><defs><style>.cls-1{fill:#6700da}.cls-2{fill:#0f0}</style></defs><path d="M60.13 163.52c-6.4 0-11.6 5.65-11.6 12.61v.33h415v-.33c0-7-5.2-12.61-11.6-12.61z" class="cls-1"/><path d="M48.53 176.46h415.01v5.31H48.53z" class="cls-2"/><path d="M48.53 337.84c0 7 5.2 12.6 11.6 12.6h391.81c6.4 0 11.6-5.64 11.6-12.6V181.77h-415zm79-7.11h-23.4v-24.36h23.42zm-4-39.28V267.1H147v24.35zm39.07 39.28h-23.42v-24.36h23.42zm-4.6-39.28V267.1h23.42v24.35zm179.81 39.28H172v-24.36h165.84zm-145.3-39.28V267.1h23.42v24.35zm34.49 0V267.1h23.43v24.35zm34.48 0V267.1h23.44v24.35zm34.5 0V267.1h23.43v24.35zm34.49 0V267.1h23.43v24.35zm42.43 39.28h-23.43v-24.36h23.43zm-7.9-39.28V267.1h23.44v24.35zm43 39.28h-23.48v-24.36H408zm-11.77-39.28V267.1H443v24.35zM443 330.73h-23.43v-24.36H443zm-23.43-142.18H443v24.35h-23.43zm0 39.28H443v24.34h-23.43zm-35.05-39.28H408v24.35h-23.48zm0 39.28H408v24.34h-23.48zm-35-39.28h23.38v24.35h-23.43zm0 39.28h23.38v24.34h-23.43zm-35.05-39.28h23.42v24.35h-23.47zm0 39.28h23.42v24.34h-23.47zm-35.05-39.28h23.38v24.35h-23.43zm0 39.28h23.38v24.34h-23.43zm-35.05-39.28h23.43v24.35h-23.48zm0 39.28h23.43v24.34h-23.48zm-35-39.28h23.33v24.35h-23.42zm0 39.28h23.33v24.34h-23.42zm-35.06-39.28h23.43v24.35h-23.52zm0 39.28h23.43v24.34h-23.52zm-35-39.28h23.29v24.35h-23.42zm0 39.28h23.29v24.34h-23.42zm-35.05-39.28h23.42v24.35h-23.55zm0 39.28h23.42v24.34h-23.55zm-35.19-39.28h23.44v24.35H69.07zm0 39.28h23.44v24.34H69.07zm0 39.27h46.77v24.35H69.07zm0 39.27h23.44v24.36H69.07z" class="cls-1"/><path d="M69.07 188.55H92.5v24.35H69.07zM104.13 188.55h23.42v24.35h-23.42zM139.18 188.55h23.43v24.35h-23.43zM174.22 188.55h23.43v24.35h-23.43zM209.28 188.55h23.42v24.35h-23.42zM244.32 188.55h23.43v24.35h-23.43zM279.37 188.55h23.43v24.35h-23.43zM314.42 188.55h23.42v24.35h-23.42zM349.47 188.55h23.43v24.35h-23.43zM384.52 188.55h23.42v24.35h-23.42zM419.57 188.55H443v24.35h-23.43zM69.07 227.83H92.5v24.34H69.07zM104.13 227.83h23.42v24.34h-23.42zM139.18 227.83h23.43v24.34h-23.43zM174.22 227.83h23.43v24.34h-23.43zM209.28 227.83h23.42v24.34h-23.42zM244.32 227.83h23.43v24.34h-23.43zM279.37 227.83h23.43v24.34h-23.43zM314.42 227.83h23.42v24.34h-23.42zM349.47 227.83h23.43v24.34h-23.43zM384.52 227.83h23.42v24.34h-23.42zM419.57 227.83H443v24.34h-23.43zM69.07 267.1h46.76v24.35H69.07zM396.18 267.1h46.76v24.35h-46.76zM123.53 267.1h23.42v24.35h-23.42zM158.03 267.1h23.42v24.35h-23.42zM192.51 267.1h23.43v24.35h-23.43zM227 267.1h23.43v24.35H227zM261.48 267.1h23.43v24.35h-23.43zM295.98 267.1h23.43v24.35h-23.43zM330.47 267.1h23.43v24.35h-23.43zM364.95 267.1h23.44v24.35h-23.44zM69.07 306.37H92.5v24.35H69.07zM104.13 306.37h23.42v24.35h-23.42zM139.18 306.37h23.43v24.35h-23.43zM279.37 306.38H171.99v24.35h165.86v-24.35h-58.48zM349.47 306.37h23.43v24.35h-23.43zM384.52 306.37h23.42v24.35h-23.42zM419.57 306.37H443v24.35h-23.43z" class="cls-2"/></svg>