<svg xmlns="http://www.w3.org/2000/svg" id="Capa_1" data-name="Capa 1" viewBox="0 0 512 512"><defs><style>.cls-1{fill:#6700da}.cls-3{fill:#00ff5f}.cls-4{fill:#0f0}</style></defs><path d="M60.11 89.18a11.63 11.63 0 00-11.62 11.63v240.54A11.62 11.62 0 0060.11 353h391a11.63 11.63 0 0011.63-11.62V100.81a11.63 11.63 0 00-11.63-11.63zM435.31 327H75.1V114.44h360.21zM458.53 358H52.64a10.74 10.74 0 00-7.37 3L4.38 399.47c-8.46 7.94-3.58 23.69 7.36 23.69h487.7c10.93 0 15.81-15.75 7.35-23.69L465.89 361a10.68 10.68 0 00-7.36-3z" class="cls-1"/><path fill="#fff" d="M435.31 327V114.44H75.1V327zm-183.57-76.43h-78v-9.69h78zM340.32 304h-83.7v-7.35h83.7zm77-12.62h-160.7V284h160.73zm0-12.62h-160.7v-7.36h160.73zm0-12.6h-160.7v-7.36h160.73zm-160.7-15.59v-9.69h78v9.69zm160.84 0h-78v-9.69h78zM90.91 132.49h326.55v99.67H90.91zm0 108.39h78v9.69h-78zm0 18.47h160.73v48.94H90.91z"/><path d="M90.91 132.49h326.55v99.67H90.91z" class="cls-3"/><path d="M90.91 240.88h77.97v9.69H90.91zM90.91 259.35h160.73v48.94H90.91zM173.77 240.88h77.97v9.69h-77.97zM256.62 240.88h77.98v9.69h-77.98z" class="cls-4"/><path d="M256.62 258.78h160.72v7.35H256.62zM256.62 271.4h160.72v7.34H256.62zM256.62 284.02h160.72v7.35H256.62zM256.62 296.63h83.7v7.35h-83.7z" class="cls-3"/><path d="M339.48 240.88h77.98v9.69h-77.98z" class="cls-4"/></svg>