<?xml version="1.0" encoding="utf-8"?>
<!-- Generator: Adobe Illustrator 22.0.1, SVG Export Plug-In . SVG Version: 6.00 Build 0)  -->
<svg version="1.1" id="Capa_1" xmlns="http://www.w3.org/2000/svg" xmlns:xlink="http://www.w3.org/1999/xlink" x="0px" y="0px"
	 viewBox="0 0 911 214" style="enable-background:new 0 0 911 214;" xml:space="preserve">
<style type="text/css">
	.st0{fill:#0090D0;}
	.st1{fill:#624788;}
	.st2{fill:#108FCF;}
	.st3{display:none;fill:#624788;}
	.st4{fill:#008FCF;}
</style>
<title>Ahora 12 y 18 Cuotas</title>
<desc>Created with Sketch.</desc>
<path id="Fill-26" class="st0" d="M292.4,74.2L283,51.5l-9.5,22.7H292.4z M249.9,93.3l24-54.1c1.7-3.7,4.8-6,8.8-6h0.8
	c4.2,0,7.1,2.2,8.7,6l24,54.1c0.5,1,0.7,2.1,0.7,3c0,4-3.1,7.3-7.2,7.3c-3.5,0-5.9-2.1-7.3-5.2l-4.7-10.8h-30.2L262.7,99
	c-1.2,2.9-3.8,4.8-7,4.8c-3.9,0-7-3.1-7-7.1C249,95.3,249.4,94.3,249.9,93.3L249.9,93.3z"/>
<path id="Fill-27" class="st0" d="M276.1,72.3h13.5l-6.7-16.2L276.1,72.3z M295.1,76h-24.6l12.2-29.3L295.1,76z M266.6,85.8h32.7
	l5.1,11.9c1.1,2.7,3,4.2,5.6,4.2c2.9,0,5.4-2.4,5.4-5.5c0-0.6-0.2-1.4-0.6-2.3l-24.1-54.1c-1.5-3.3-3.8-4.9-7.1-4.9h-0.8
	c-4.2,0-6.1,2.6-7.2,4.9L251.7,94c-0.3,0.8-0.7,1.7-0.7,2.5c0,2.9,2.2,5.3,5.2,5.3c2.3,0,4.4-1.2,5.3-3.6L266.6,85.8z M309.9,105.4
	c-4,0-7.2-2.2-8.9-6.3l-4.2-9.8H269l-4.4,10.2c-1.7,3.7-4.9,5.9-8.7,5.9c-5,0-8.7-3.9-8.7-8.8c0-1.5,0.5-2.8,1-4l24-54.1
	c2-4.6,5.8-7.1,10.6-7.1h0.8c4.7,0,8.3,2.5,10.5,7.1l24,54.1c0.6,1.4,0.9,2.6,0.9,3.8C318.9,101.4,315,105.4,309.9,105.4
	L309.9,105.4z"/>
<path id="Fill-28" class="st0" d="M329,41.3c0-4.3,3.4-7.6,7.6-7.6s7.6,3.4,7.6,7.6v20.2H372V41.3c0-4.3,3.4-7.6,7.6-7.6
	s7.6,3.4,7.6,7.6V96c0,4.3-3.4,7.6-7.6,7.6s-7.6-3.4-7.6-7.6V75.4H344V96c0,4.3-3.4,7.6-7.6,7.6s-7.6-3.4-7.6-7.6V41.3H329z"/>
<path id="Fill-29" class="st0" d="M342.3,73.5h31.6V96c0,3.1,2.5,5.7,5.7,5.7c3.1,0,5.7-2.5,5.7-5.7V41.3c0-3.1-2.5-5.7-5.7-5.7
	c-3.1,0-5.7,2.5-5.7,5.7v22h-31.6v-22c0-3.1-2.5-5.7-5.7-5.7c-3.1,0-5.7,2.5-5.7,5.7V96c0,3.1,2.5,5.7,5.7,5.7
	c3.1,0,5.7-2.5,5.7-5.7V73.5z M379.5,105.4c-5.3,0-9.3-4.2-9.3-9.3V77.2h-24.3V96c0,5.3-4.2,9.3-9.3,9.3c-5.3,0-9.3-4.2-9.3-9.3
	V41.3c0-5.3,4.2-9.3,9.3-9.3c5.3,0,9.3,4.2,9.3,9.3v18.4h24.3V41.3c0-5.3,4.2-9.3,9.3-9.3c5.2,0,9.3,4.2,9.3,9.3V96
	C388.9,101.3,384.8,105.4,379.5,105.4L379.5,105.4z"/>
<path id="Fill-30" class="st0" d="M457.8,68.8v-0.2c0-11.8-8.6-21.6-20.8-21.6c-12.1,0-20.6,9.7-20.6,21.4v0.2
	c0,11.8,8.6,21.6,20.8,21.6S457.8,80.6,457.8,68.8 M400.6,68.8v-0.2c0-19.5,15.4-35.6,36.6-35.6s36.4,15.7,36.4,35.4v0.2
	c0,19.5-15.4,35.6-36.6,35.6S400.6,88.3,400.6,68.8"/>
<path id="Fill-31" class="st0" d="M437,48.8c-10.8,0-18.8,8.4-18.8,19.6c0,11.5,8.1,19.9,19,19.9c10.8,0,18.8-8.4,18.8-19.6
	C456,57.2,447.7,48.8,437,48.8 M437.2,91.9c-12.7,0-22.7-10.4-22.7-23.5c0-13.4,9.7-23.5,22.5-23.5c12.7,0,22.7,10.4,22.7,23.5
	C459.6,82.1,450,91.9,437.2,91.9 M437.2,34.9c-19.5,0-34.8,14.7-34.8,33.7c0,19.3,14.8,33.7,34.6,33.7c19.5,0,34.8-14.7,34.8-33.7
	C471.8,49.3,456.9,34.9,437.2,34.9 M437,106c-21.8,0-38.3-16.1-38.3-37.2c0-21.2,16.9-37.6,38.5-37.6c21.8,0,38.3,15.9,38.3,37.2
	C475.4,89.5,458.5,106,437,106"/>
<path id="Fill-32" class="st0" d="M517.4,67.6c7.4,0,11.6-3.9,11.6-9.8v-0.2c0-6.4-4.6-9.9-11.9-9.9h-14.9v19.8H517.4z M487.1,41.8
	c0-4.3,3.4-7.6,7.6-7.6h23.9c8.7,0,15.5,2.4,20,7c3.8,3.8,5.9,9.2,5.9,15.7v0.2c0,10.8-5.4,17.5-13.7,20.9l10.6,12.8
	c1.5,1.9,2.4,3.5,2.4,5.8c0,4.3-3.6,7-7.2,7c-3.5,0-5.7-1.7-7.5-3.9l-14.7-18.7h-12V96c0,4.3-3.4,7.6-7.6,7.6s-7.6-3.4-7.6-7.6
	L487.1,41.8L487.1,41.8z"/>
<path id="Fill-33" class="st0" d="M504,65.8h13.5c6.1,0,9.8-2.9,9.8-7.9c0-6.7-5.5-8.2-10.1-8.2H504L504,65.8L504,65.8z M517.4,69.4
	h-17.1V46h16.9c8.5,0,13.7,4.4,13.7,11.6C530.8,64.8,525.6,69.4,517.4,69.4L517.4,69.4z M500.4,79h14.8l15.3,19.3
	c1.8,2.2,3.6,3.3,6,3.3c2.6,0,5.4-1.9,5.4-5.2c0-1.8-0.6-2.8-2.1-4.7l-12-14.6l2.3-0.9c8.3-3.5,12.7-10,12.7-19.2
	c0-6.1-1.9-11.1-5.4-14.6c-4.3-4.3-10.7-6.4-18.8-6.4h-23.9c-3.1,0-5.7,2.5-5.7,5.7v54.2c0,3.1,2.5,5.7,5.7,5.7
	c3.1,0,5.7-2.5,5.7-5.7L500.4,79L500.4,79z M536.4,105.4c-3.6,0-6.4-1.5-8.8-4.7l-14.1-17.9h-9.3V96c0,5.3-4.2,9.3-9.3,9.3
	c-5.2,0-9.3-4.2-9.3-9.3V41.8c0-5.3,4.2-9.3,9.3-9.3h23.9c9,0,16.5,2.6,21.3,7.5c4.3,4.3,6.4,10.2,6.4,17c0,10.2-4.4,17.5-12.7,21.7
	l8.9,11c1.5,1.9,2.8,3.9,2.8,7C545.5,102.1,540.9,105.4,536.4,105.4L536.4,105.4z"/>
<path id="Fill-34" class="st0" d="M596.7,74.2l-9.4-22.7l-9.4,22.7H596.7z M554.2,93.3l24-54.1c1.7-3.7,4.8-6,8.8-6h0.8
	c4.2,0,7.1,2.2,8.7,6l24,54.1c0.5,1,0.7,2.1,0.7,3c0,4-3.1,7.3-7.2,7.3c-3.5,0-5.9-2.1-7.3-5.2L602,87.7h-30L567.2,99
	c-1.2,2.9-3.8,4.8-7,4.8c-3.9,0-7-3.1-7-7.1C553.4,95.3,553.8,94.3,554.2,93.3L554.2,93.3z"/>
<path id="Fill-35" class="st0" d="M580.4,72.3h13.5l-6.7-16.2L580.4,72.3z M599.4,76h-24.6L587,46.7L599.4,76z M570.9,85.8h32.7
	l5.1,11.9c1.1,2.7,3,4.2,5.6,4.2c2.9,0,5.4-2.4,5.4-5.5c0-0.6-0.2-1.4-0.6-2.3l-24.1-54.1c-1.5-3.3-3.8-4.9-7.1-4.9H587
	c-4.2,0-6.1,2.6-7.2,4.9l-24,54.1c-0.3,0.8-0.7,1.7-0.7,2.5c0,2.9,2.2,5.3,5.2,5.3c2.3,0,4.4-1.2,5.3-3.6L570.9,85.8z M614.2,105.4
	c-4,0-7.2-2.2-8.9-6.3l-4.2-9.8h-27.8l-4.4,10.2c-1.6,3.7-4.9,5.8-8.6,5.8c-5,0-8.7-3.9-8.7-8.8c0-1.5,0.5-2.8,1-4l24-54.1
	c2-4.6,5.8-7.1,10.6-7.1h0.8c4.7,0,8.3,2.5,10.5,7.1l24,54.1c0.6,1.4,0.9,2.6,0.9,3.8C623.2,101.4,619.3,105.4,614.2,105.4
	L614.2,105.4z"/>
<path id="Fill-36" class="st0" d="M668,48.5l-5.3,1.4c-0.7,0.2-1.9,0.4-2.6,0.4c-3.6,0-6.5-2.9-6.5-6.4c0-3,2-5.6,5-6.4l9.8-2.8
	c2.8-0.7,5-1.2,7.1-1.2h0.2c4.2,0,7.5,3.4,7.5,7.5v55.4c0,4.2-3.4,7.5-7.5,7.5c-4.1,0-7.5-3.4-7.5-7.5L668,48.5L668,48.5z"/>
<path id="Fill-37" class="st0" d="M669.9,46.1V96c0,3,2.5,5.6,5.6,5.6c3,0,5.6-2.5,5.6-5.6V40.6c0-3-2.5-5.6-5.6-5.6
	c-2,0-4,0.4-6.7,1.1L659,39c-2.2,0.6-3.7,2.5-3.7,4.8c0,2.4,2.2,4.7,4.8,4.7c0.5,0,1.4-0.1,2.2-0.3L669.9,46.1z M675.5,105.4
	c-5.2,0-9.2-4.3-9.2-9.2V50.9l-3,0.7c-0.4,0.1-1.9,0.4-3,0.4c-4.6,0-8.4-3.8-8.4-8.3c0-3.9,2.5-7.2,6.3-8.2l9.8-2.8
	c3-0.8,5.4-1.4,7.6-1.4c5.3,0,9.4,4.3,9.4,9.2V96C684.7,101.1,680.7,105.4,675.5,105.4L675.5,105.4z"/>
<path id="Fill-38" class="st0" d="M700.2,88.2l19.5-16.1c8.5-7,11.9-10.8,11.9-16.5c0-5.8-3.8-8.9-9.2-8.9c-4.4,0-7.4,1.9-11.2,6
	c-0.9,1-2.7,2.1-5.1,2.1c-3.8,0-6.9-3-6.9-6.9c0-1.7,0.7-3.5,1.8-4.8c5.5-6.4,12-10.2,22.3-10.2c14.2,0,23.7,8.3,23.7,21.2v0.2
	c0,11.5-5.9,17.2-18.1,26.6l-11.2,8.6h24c3.6,0,6.5,2.9,6.5,6.5c0,3.6-2.9,6.4-6.5,6.4h-37.4c-4.8,0-8.1-2.6-8.1-7.2
	C696.2,92.8,697.5,90.3,700.2,88.2"/>
<path id="Fill-39" class="st0" d="M722.3,44.9c6.7,0,11.1,4.3,11.1,10.8s-3.9,10.9-12.5,17.9l-19.5,16.1c-2.1,1.8-3.3,3.8-3.3,6.1
	c0,3.9,3.3,5.4,6.3,5.4h37.3c2.6,0,4.8-2,4.8-4.7s-2.1-4.8-4.8-4.8h-29.4l15.4-11.9c12-9.3,17.4-14.5,17.4-25.1
	c0-11.9-8.5-19.6-21.8-19.6c-8.9,0-15.3,2.8-21,9.4c-0.8,0.9-1.4,2.3-1.4,3.5c0,2.8,2.2,5.1,5.1,5.1c2.1,0,3.4-1.1,3.8-1.6
	C713.5,47.6,716.9,44.9,722.3,44.9 M741.6,104.7h-37.4c-6,0-10.1-3.6-10.1-8.9c0-3.5,1.6-6.5,4.7-8.9l19.5-16.1
	c8.7-7.2,11.2-10.5,11.2-15.1c0-4.6-2.7-7.1-7.4-7.1c-3.6,0-6.1,1.4-9.9,5.4c-0.7,0.8-2.8,2.7-6.4,2.7c-4.9,0-8.7-3.8-8.7-8.7
	c0-2.1,0.8-4.3,2.2-5.9c6.4-7.5,13.7-10.8,23.8-10.8c15.3,0,25.5,9.2,25.5,23c0,12.4-6,18.4-18.8,28.2l-7,5.4h18.6
	c4.7,0,8.4,3.8,8.4,8.4C750.1,101,746.3,104.7,741.6,104.7"/>
<path id="Fill-80" class="st1" d="M146.9,138.8c-6.2,0-3.8,6.4-10.3,14.1l-0.1,0.1c-3.8,4.5-9.2,6.6-16.2,6.6
	c-15.8,0-23.3-11-23.3-34.6c0-23.4,7.4-34.3,23-34.4c0.1,0,0.1,0,0.2,0l0,0l0,0c9.4,0,15.8,3.9,19.5,12c0.1,0.1,0.1,0.2,0.2,0.4
	c0.3,0.6,0.5,1.1,0.7,1.7c1.3,2.8,3.3,4.4,6.7,3.6c3.2-0.7,5.5-5.3,1-15c-2.9-6.3-10.9-15-23.7-16.6c-9.6-1.2-16.9,4.5-20.1,4
	s-1.6-4.9,0-12.4c2.1-9.6,6.5-17.8,8.5-21.6c1-2,1.9-3.9,1.9-5.9c0-3.7-2.9-7-7.8-7c-5.6,0-12.1,9.6-16.5,23.1
	c-3.1,9.5-4.2,20.7-4.8,25.7c-0.6,5.7-0.4,8.4-3,8.4c-2.8,0-1.8-4.4-1.4-11.8c0.2-3,0.5-9,1.4-14.1c0.5-3.1,1.2-6.1,0.1-8.5
	c-0.7-1.5-2.2-3.3-5-3.5C71.7,52.8,67.7,63,67,74.6c-0.7,9.4-1.1,13.5-1,22.7c0.1,6.8,0.4,10.2-2.4,10.2c-2.7,0-2.5-3.7-2.5-7.8
	c0-3.6,0-7.7,0.2-9.8c0.4-5,0.9-9.1,0.9-13c0-2.1-1.5-4.6-5.3-4.3C49.8,73.1,50,90,49.3,100c-1.4,21.7,5.2,44.9,13.6,55.5
	c17.2,21.3,34,23.7,47.6,23.7c17.1,0,27-3.9,35.2-14.8C156.5,149.9,154.3,138.8,146.9,138.8"/>
<path id="Fill-81" class="st2" d="M120.3,149.1c7.6,0,9.7-6.6,9.7-23.9s-2.1-23.9-9.7-23.9s-9.7,6.5-9.7,23.9
	C110.7,142.5,112.8,149.1,120.3,149.1"/>
<path id="Fill-82" class="st3" d="M141.3,111.6c-0.7,0-1.5,0.2-2.4,0.4l-2.9,0.9c-1.3,0.4-2.2,1.6-2.2,2.9c0,1.6,1.4,2.9,3,2.9
	c0.4,0,0.9-0.1,1-0.2l0.4-0.1v13.1c0,1.8,1.5,3.2,3.2,3.2c1.8,0,3.2-1.5,3.2-3.2v-16.7C144.6,113.1,143.1,111.6,141.3,111.6"/>
<path id="Fill-83" class="st3" d="M161.3,128.7H157l1.1-0.8c3.6-2.8,5.8-4.8,5.8-8.9c0-4.4-3.3-7.4-8.1-7.4c-3.2,0-5.5,1-7.5,3.4
	c-0.5,0.6-0.8,1.3-0.8,2.1c0,1.7,1.4,3.1,3.1,3.1c0.9,0,1.7-0.4,2.3-1c1-1.1,1.7-1.5,2.7-1.5c0.8,0,1.8,0.3,1.8,1.7
	c0,1.2-0.7,2.1-3.2,4.2l-5.9,4.8c-1,0.8-1.6,1.9-1.6,3c0,1.9,1.4,3.2,3.4,3.2h11.3c1.6,0,3-1.3,3-2.9
	C164.3,130,162.9,128.7,161.3,128.7"/>
<path id="Fill-84" class="st2" d="M106.8,19.5c-48.1,0-87.3,39.2-87.3,87.3s39.1,87.3,87.3,87.3c48.1,0,87.3-39.2,87.3-87.3
	S154.9,19.5,106.8,19.5 M106.8,213.6C47.9,213.6,0,165.7,0,106.8S47.9,0,106.8,0s106.8,47.9,106.8,106.8S165.7,213.6,106.8,213.6"/>
<path class="st4" d="M873.3,75.9c12.9-2.7,17.3,9.1,6.9,11.8C867.9,90.7,861.2,78.5,873.3,75.9z M874.1,48.5
	c10.3-2.6,13.6,9.2,4.8,11.4c-4.5,1-8.3-0.6-9.3-3.8C867.9,51.7,870.6,49.3,874.1,48.5z M857.6,66.7c-0.8,1.1-1,0.8-2.3,1.9
	c-7.2,6.2-8,15.8-3.9,23.7c8.3,15.7,41.4,15.7,49.8,0.4c4.4-8,3.9-17.3-3.6-23.9c-1.2-1-1.6-0.8-2.4-2c2.5-3.1,5-4.4,6-10.2
	c0.9-5.1,0-10-2.2-13.6c-3.9-6.3-12.1-10.7-22.5-10.7c-10.3,0-18.9,4.4-22.6,10.6c-3.1,5.4-3.9,13.1-0.3,19.2
	C855.2,64.4,856.2,64.5,857.6,66.7z M821.8,51.5v38.6c0,5.1-0.2,7.4,2.6,10.6c5.2,5.8,14.6,2.2,15.6-5.1c0.5-4.4,0-43.6,0.1-51.9
	c0.1-16.8-14.4-11-24.1-8.1c-11.5,3.4-8.6,12.2-5.1,14.9C814.6,53.4,817.2,52.2,821.8,51.5z"/>
<path class="st0" d="M780.5,104.1L780.5,104.1c-2.3,0-4.3-1.9-4.3-4.3V35.5c0-2.3,1.9-4.3,4.3-4.3l0,0c2.3,0,4.3,1.9,4.3,4.3V100
	C784.7,102.2,782.9,104.1,780.5,104.1z"/>
<g>
	<path class="st1" d="M303.8,193.2c-2.5-2-4.3-4.6-5.4-8c-1.1-3.3-1.6-7-1.6-11.2s0.6-7.9,1.6-11.2c1.1-3.4,2.8-6,5.4-8
		c2.5-2,5.7-3,9.9-3s7.7,1.1,10.4,3.3c2.7,2.2,4.4,5.4,5.2,9.6l-8.5,2.1c-0.3-2.3-1.1-4-2.1-5.1c-1-1.2-2.6-1.8-4.5-1.8
		c-2.5,0-4.4,1.2-5.5,3.6c-1.1,2.4-1.7,5.9-1.7,10.4c0,9.7,2.4,14.4,7.2,14.4c1.9,0,3.4-0.6,4.4-1.9c1.1-1.3,1.8-3,2.3-5.3l8.6,2.3
		c-0.8,4.2-2.5,7.4-5.2,9.6c-2.7,2.2-6.1,3.3-10.3,3.3C309.5,196.1,306.3,195.2,303.8,193.2z"/>
	<path class="st1" d="M339.2,192.3c-2.6-2.5-3.8-6.2-3.8-11v-28.9h10.1v29.2c0,2.4,0.5,4.2,1.5,5.4c0.9,1.2,2.4,1.7,4.2,1.7
		c1.9,0,3.4-0.5,4.4-1.7c1-1.2,1.5-2.9,1.5-5.4v-29.2h10.1V181c0,4.9-1.4,8.7-3.9,11.2c-2.6,2.6-6.6,3.9-12.1,3.9
		C345.6,196.1,341.6,194.8,339.2,192.3z"/>
	<path class="st1" d="M378.1,190.8c-2.7-3.6-4.1-9.2-4.1-16.7c0-7.6,1.4-13.1,4.1-16.7s6.8-5.5,12.2-5.5c5.6,0,9.8,1.8,12.5,5.5
		c2.8,3.6,4.2,9.2,4.2,16.7c0,7.6-1.4,13.1-4.2,16.7c-2.8,3.6-7,5.5-12.5,5.5C384.9,196.1,380.9,194.3,378.1,190.8z M395.5,184.7
		c1.1-2.2,1.7-5.8,1.7-10.7c0-5-0.6-8.6-1.7-10.8s-2.7-3.4-4.8-3.4s-3.8,1.2-5,3.4c-1.1,2.2-1.7,5.9-1.7,10.8s0.6,8.5,1.7,10.7
		c1.1,2.2,2.7,3.3,5,3.3C392.8,187.9,394.4,186.9,395.5,184.7z"/>
	<path class="st1" d="M418.4,160.4h-9v-8h28.1v8h-9v35.1h-10V160.4z"/>
	<path class="st1" d="M459,187.5h-11.5l-1.7,8h-10.3l11.3-43.1h12.7l11.3,43.1h-10.1L459,187.5z M457.5,180l-3.4-16.1l-0.6-4.1h-0.2
		l-0.6,4.1l-3.5,16.1H457.5z"/>
	<path class="st1" d="M482.6,195c-2.1-0.7-3.9-2.1-5.5-4c-1.6-1.9-2.6-4.5-3-7.7l8.1-2.7c0.5,2.6,1.2,4.5,2.5,5.9
		c1.2,1.4,2.7,2,4.5,2c1.4,0,2.5-0.4,3.3-1.2s1.1-2,1.1-3.6c0-1.2-0.2-2.1-0.8-2.9c-0.6-0.8-1.2-1.5-2.1-2.1
		c-0.9-0.5-2.1-1.3-3.8-2.2c-0.2-0.1-0.5-0.2-0.7-0.3s-0.3-0.2-0.6-0.3c-2.1-1.2-3.9-2.1-5.2-3s-2.5-2.1-3.5-3.6
		c-1-1.5-1.5-3.3-1.5-5.4c0-3.9,1.1-6.9,3.3-8.9c2.1-2.1,5.5-3.2,10-3.2c3.3,0,6.1,0.7,8.7,2.3s4.3,4.2,5.1,8.1l-7.4,2.6
		c-0.3-1.9-1-3.3-2-4.3c-0.9-0.9-2.3-1.5-3.9-1.5c-1.4,0-2.5,0.3-3.2,1.1c-0.8,0.7-1.1,1.6-1.1,2.6c0,0.8,0.2,1.6,0.8,2.2
		c0.6,0.6,1.2,1.2,2,1.7c0.8,0.5,2,1.1,3.5,1.8c1.5,0.7,2.5,1.3,3.3,1.7c1.7,0.9,3.3,1.9,4.5,2.9c1.2,1.1,2.4,2.4,3.3,4.1
		c0.9,1.7,1.4,3.7,1.4,6c0,2.6-0.6,4.9-1.7,6.9c-1.1,2-2.7,3.5-4.8,4.5s-4.6,1.6-7.5,1.6C487,196.1,484.7,195.7,482.6,195z"/>
	<path class="st1" d="M530.1,195c-2.1-0.7-3.9-2.1-5.5-4c-1.6-1.9-2.6-4.5-3-7.7l8.1-2.7c0.5,2.6,1.2,4.5,2.5,5.9
		c1.2,1.4,2.7,2,4.5,2c1.4,0,2.5-0.4,3.3-1.2s1.1-2,1.1-3.6c0-1.2-0.2-2.1-0.8-2.9c-0.6-0.8-1.2-1.5-2.1-2.1
		c-0.9-0.5-2.1-1.3-3.8-2.2c-0.2-0.1-0.5-0.2-0.7-0.3c-0.2-0.1-0.3-0.2-0.6-0.3c-2.1-1.2-3.9-2.1-5.2-3s-2.5-2.1-3.5-3.6
		c-1-1.5-1.5-3.3-1.5-5.4c0-3.9,1.1-6.9,3.3-8.9c2.1-2.1,5.5-3.2,10-3.2c3.3,0,6.1,0.7,8.7,2.3c2.6,1.6,4.3,4.2,5.1,8.1l-7.4,2.6
		c-0.3-1.9-1-3.3-2-4.3c-0.9-0.9-2.3-1.5-3.9-1.5c-1.4,0-2.5,0.3-3.2,1.1c-0.8,0.7-1.1,1.6-1.1,2.6c0,0.8,0.2,1.6,0.8,2.2
		c0.6,0.6,1.2,1.2,2,1.7c0.8,0.5,2,1.1,3.5,1.8s2.5,1.3,3.3,1.7c1.7,0.9,3.3,1.9,4.5,2.9c1.2,1.1,2.4,2.4,3.3,4.1
		c0.9,1.7,1.4,3.7,1.4,6c0,2.6-0.6,4.9-1.7,6.9c-1.1,2-2.7,3.5-4.8,4.5c-2.1,1.1-4.6,1.6-7.5,1.6C534.5,196.1,532.3,195.7,530.1,195
		z"/>
	<path class="st1" d="M558.2,152.4h9.9v43.1h-9.9V152.4z"/>
	<path class="st1" d="M612.4,152.4v43.1h-13.1l-12.6-33.8l0.8,9v24.8h-9.6v-43.1H591l12.7,33.6l-0.8-8.9v-24.7L612.4,152.4
		L612.4,152.4z"/>
	<path class="st1" d="M636.3,152.4h9.9v43.1h-9.9V152.4z"/>
	<path class="st1" d="M690.5,152.4v43.1h-13.1l-12.6-33.8l0.8,9v24.8H656v-43.1h13.1l12.7,33.6l-0.8-8.9v-24.7L690.5,152.4
		L690.5,152.4z"/>
	<path class="st1" d="M705,160.4h-9v-8H724v8h-9v35.1h-10V160.4z"/>
	<path class="st1" d="M729.6,152.4h23.5v8h-13.5v9.5h12.1v8h-11.9v9.6h13.5v8h-23.5v-43H729.6z"/>
	<path class="st1" d="M782.5,195.6l-7-15.3h-0.7h-3.5v15.2h-10v-43.1h14.2c3,0,5.6,0.5,7.9,1.7s3.9,2.7,5.1,4.8s1.8,4.6,1.8,7.5
		c0,2.6-0.6,4.9-1.7,6.9c-1.1,2-2.7,3.6-4.7,4.7l9,17.4h-10.4V195.6z M774.4,173.3c1.9,0,3.4-0.6,4.4-1.9c1-1.3,1.5-2.9,1.5-5
		c0-2.1-0.5-3.7-1.5-4.8c-1-1.2-2.5-1.7-4.3-1.7h-3.2v13.4L774.4,173.3L774.4,173.3z"/>
	<path class="st1" d="M799.3,152.4h23.5v8h-13.5v9.5h11.9v8h-11.9v9.6h13.5v8h-23.5V152.4z M813.1,141.3h9.2l-8.8,7.5H807
		L813.1,141.3z"/>
	<path class="st1" d="M836.2,195c-2.1-0.7-3.9-2.1-5.5-4c-1.6-1.9-2.6-4.5-3-7.7l8.1-2.7c0.5,2.6,1.2,4.5,2.5,5.9
		c1.2,1.4,2.7,2,4.5,2c1.4,0,2.5-0.4,3.3-1.2s1.1-2,1.1-3.6c0-1.2-0.2-2.1-0.8-2.9c-0.6-0.8-1.2-1.5-2.1-2.1
		c-0.9-0.5-2.1-1.3-3.8-2.2c-0.2-0.1-0.5-0.2-0.7-0.3s-0.3-0.2-0.6-0.3c-2.1-1.2-3.9-2.1-5.2-3c-1.2-0.9-2.5-2.1-3.5-3.6
		c-1-1.5-1.5-3.3-1.5-5.4c0-3.9,1.1-6.9,3.3-8.9c2.1-2.1,5.5-3.2,10-3.2c3.3,0,6.1,0.7,8.7,2.3c2.6,1.6,4.3,4.2,5.1,8.1l-7.4,2.6
		c-0.3-1.9-1-3.3-2-4.3c-0.9-0.9-2.3-1.5-3.9-1.5c-1.4,0-2.5,0.3-3.2,1.1c-0.8,0.7-1.1,1.6-1.1,2.6c0,0.8,0.2,1.6,0.8,2.2
		c0.6,0.6,1.2,1.2,2,1.7c0.8,0.5,2,1.1,3.5,1.8s2.5,1.3,3.3,1.7c1.7,0.9,3.3,1.9,4.5,2.9c1.2,1.1,2.4,2.4,3.3,4.1
		c0.9,1.7,1.4,3.7,1.4,6c0,2.6-0.6,4.9-1.7,6.9c-1.1,2-2.7,3.5-4.8,4.5c-2.1,1.1-4.6,1.6-7.5,1.6C840.5,196.1,838.3,195.7,836.2,195
		z"/>
</g>
<path class="st0" d="M900.4,123H250.8c-2,0-3.6,1.6-3.6,3.6v0c0,2,1.6,3.6,3.6,3.6h649.6c2,0,3.6-1.6,3.6-3.6v0
	C904,124.6,902.4,123,900.4,123z"/>
</svg>
