<?xml version="1.0" encoding="utf-8"?>
<!-- Generator: Adobe Illustrator 21.0.2, SVG Export Plug-In . SVG Version: 6.00 Build 0)  -->
<svg version="1.1" id="Layer_1" xmlns="http://www.w3.org/2000/svg" xmlns:xlink="http://www.w3.org/1999/xlink" x="0px" y="0px"
	 viewBox="0 0 65 45" enable-background="new 0 0 65 45" xml:space="preserve">
<g>
	<rect x="0.675" y="8.512" fill="#FFFFFF" width="63.01" height="30.744"/>
	<g>
		<defs>
			<rect id="SVGID_1_" x="0.576" y="0.833" width="63.924" height="43.64"/>
		</defs>
		<clipPath id="SVGID_2_">
			<use xlink:href="#SVGID_1_"  overflow="visible"/>
		</clipPath>
		
			<radialGradient id="path5348_2_" cx="185.8689" cy="-198.4218" r="31.4786" gradientTransform="matrix(1.5293 1.6324 1.5061 -1.3996 25.9677 -582.2266)" gradientUnits="userSpaceOnUse">
			<stop  offset="0" style="stop-color:#80D2F1"/>
			<stop  offset="0.8709" style="stop-color:#087DC1"/>
		</radialGradient>
		<path id="path5348_1_" clip-path="url(#SVGID_2_)" fill="url(#path5348_2_)" d="M63.506,23.872h-3.374
			c-0.975,0-1.706,0.226-2.21,0.589v-0.589h-4.813c-0.763,0-1.683,0.184-2.11,0.589v-0.589h-8.602v0.589
			c-0.688-0.484-1.841-0.589-2.384-0.589h-5.679v0.589c-0.544-0.521-1.736-0.589-2.466-0.589h-6.367l-1.457,1.57l-1.354-1.57h-9.494
			V34.11h9.317l1.494-1.594l1.414,1.59l5.736,0.005v-2.414h0.571c0.758,0,1.656-0.017,2.439-0.353v2.767h4.751v-2.68h0.232
			c0.289-0.003,0.312,0.022,0.312,0.296v2.384h14.383c0.905,0,1.881-0.233,2.407-0.648v0.648h4.559c0.945,0,3.006-0.137,3.712-0.469
			v18.758H0.736V21.483h3.008l0.678-1.642h1.516l0.681,1.642h5.921v-1.249l0.531,1.252h3.065l0.534-1.272v1.269h14.707l-0.003-2.68
			h0.287c0.212,0,0.262,0.025,0.262,0.35v2.33h7.609l-0.002-0.636c0.606,0.328,1.559,0.636,2.826,0.636h3.2l0.691-1.642h1.516
			l0.681,1.642h6.15v-1.555l0.945,1.555h4.941V11.244h-4.886v1.207l-0.701-1.207h-5.02v1.207l-0.616-1.207h-6.781
			c-1.142,0-2.147,0.152-2.945,0.589v-0.589h-4.674v0.589c-0.531-0.447-1.222-0.589-1.995-0.589H15.765l-1.157,2.64l-1.17-2.64
			H8.058v1.207L7.45,11.244H2.859L0.736,16.1V-10.24h63.786l-0.109,34.113 M58.917,20.037h-2.509l-3.334-5.507l0.002,5.507h-3.584
			l-0.678-1.644h-3.666l-0.676,1.644h-2.05c-0.865,0-1.948-0.199-2.561-0.817c-0.618-0.628-0.933-1.465-0.933-2.802
			c0-1.09,0.195-2.086,0.945-2.869c0.566-0.584,1.467-0.859,2.681-0.859h1.683v1.575l-1.648-0.003c-0.651,0-1.018,0.097-1.362,0.44
			c-0.309,0.305-0.516,0.892-0.516,1.664c0,0.782,0.155,1.344,0.501,1.721c0.259,0.286,0.748,0.375,1.222,0.375h0.79l2.482-5.772
			h2.624l2.985,6.947V12.69h2.691l3.098,5.114l-0.003-5.114h1.816V20.037z M36.265,20.037h1.803v-7.35h-1.803V20.037z
			 M34.345,13.045c-0.569-0.323-1.23-0.355-2.122-0.355h-4.058v7.347h1.761v-2.675h1.891c0.641,0,1.027,0.057,1.279,0.323
			c0.327,0.345,0.289,0.986,0.289,1.423v0.929h1.773v-1.458c0-0.638-0.045-0.976-0.292-1.331c-0.15-0.214-0.481-0.477-0.868-0.623
			c0.464-0.181,1.255-0.785,1.255-1.95C35.252,13.853,34.911,13.371,34.345,13.045 M26.945,18.502l-4.122,0.005v-1.455l4.023,0.002
			v-1.51h-4.023V14.22h4.122v-1.53h-5.883v7.347h5.883V18.502z M19.747,12.69h-2.933l-2.12,4.983l-2.297-4.983H9.515l0.002,6.95
			L6.53,12.69H3.906l-3.155,7.347h1.92l0.676-1.644h3.666l0.678,1.644h3.584v-5.76l2.561,5.76h1.549l2.554-5.753v5.753h1.808V12.69z
			 M48.181,16.863l-1.202-2.919l-1.2,2.919H48.181z M32.936,15.703c-0.237,0.142-0.524,0.151-0.863,0.151h-2.147V14.22h2.172
			c0.312,0,0.628,0.01,0.838,0.127c0.219,0.122,0.362,0.348,0.362,0.658C33.297,15.32,33.16,15.574,32.936,15.703 M3.978,16.863
			l1.2-2.919l1.202,2.919H3.978 M63.781,30.35c0,1.562-0.985,2.312-2.768,2.312h-3.402v-1.575H61c0.327,0,0.561-0.045,0.708-0.179
			c0.117-0.109,0.207-0.273,0.207-0.479c0-0.219-0.09-0.383-0.215-0.487c-0.132-0.112-0.312-0.156-0.613-0.164
			c-1.646-0.045-3.716,0.052-3.716-2.278c0-1.053,0.671-2.186,2.524-2.186h3.511v1.577h-3.215c-0.317,0-0.529,0.01-0.701,0.124
			c-0.187,0.122-0.262,0.296-0.262,0.531c0,0.273,0.159,0.464,0.386,0.544c0.18,0.062,0.382,0.077,0.676,0.082l0.945,0.025
			c0.978,0.022,1.616,0.184,2.013,0.591C63.599,29.155,63.781,29.585,63.781,30.35 M56.366,28.79
			c-0.397-0.405-1.04-0.569-2.018-0.591l-0.943-0.025c-0.294-0.005-0.494-0.02-0.676-0.082c-0.224-0.079-0.384-0.271-0.384-0.544
			c0-0.236,0.075-0.41,0.259-0.531c0.172-0.114,0.387-0.124,0.706-0.124h3.23v-1.577h-3.529c-1.853,0-2.524,1.13-2.524,2.186
			c0,2.332,2.07,2.233,3.714,2.278c0.302,0.007,0.484,0.052,0.614,0.164c0.125,0.104,0.217,0.268,0.217,0.487
			c0,0.206-0.092,0.37-0.209,0.479c-0.147,0.134-0.379,0.179-0.708,0.179h-3.419v1.575h3.432c1.783,0,2.768-0.75,2.768-2.312
			C56.895,29.585,56.715,29.155,56.366,28.79 M49.647,31.135l-4.122-0.002v-1.451h4.025v-1.512l-4.025,0.002v-1.324h4.122v-1.533
			h-5.883v7.347h5.883V31.135z M41.881,25.673c-0.571-0.325-1.229-0.358-2.12-0.358h-4.06v7.347h1.758v-2.67l1.895-0.002
			c0.641,0,1.025,0.057,1.279,0.32c0.327,0.348,0.287,0.986,0.287,1.423v0.929h1.776v-1.455c-0.003-0.638-0.045-0.976-0.294-1.331
			c-0.147-0.216-0.479-0.479-0.863-0.626c0.459-0.181,1.249-0.782,1.249-1.95C42.789,26.48,42.447,25.998,41.881,25.673
			 M31.911,25.315h-5.631l-2.247,2.412l-2.16-2.412H14.78v7.347h6.983l2.252-2.422l2.167,2.422h3.429v-2.459h2.19
			c1.539,0,3.065-0.425,3.065-2.459C34.866,25.713,33.3,25.315,31.911,25.315 M40.475,28.333c-0.239,0.137-0.526,0.147-0.865,0.147
			l-2.15,0.003v-1.634h2.175c0.312,0,0.628,0.01,0.84,0.124c0.22,0.124,0.359,0.35,0.359,0.661
			C40.834,27.948,40.697,28.201,40.475,28.333 M31.891,28.696h-2.279v-1.848h2.299c0.631,0,1.065,0.261,1.065,0.897
			C32.976,28.375,32.562,28.696,31.891,28.696 M25.152,29.006l2.699-2.894v5.879L25.152,29.006z M20.87,31.132h-4.327v-1.451h3.858
			v-1.512l-3.858,0.002v-1.324h4.404l1.933,2.136L20.87,31.132"/>
	</g>
	<rect x="0.5" y="0.5" fill="none" stroke="#FFFFFF" stroke-miterlimit="10" width="64" height="44"/>
</g>
</svg>
