<?xml version="1.0" encoding="utf-8"?>
<!-- Generator: Adobe Illustrator 22.1.0, SVG Export Plug-In . SVG Version: 6.00 Build 0)  -->
<svg version="1.1" id="Capa_1" xmlns="http://www.w3.org/2000/svg" xmlns:xlink="http://www.w3.org/1999/xlink" x="0px" y="0px"
	 viewBox="0 0 525.8 232" style="enable-background:new 0 0 525.8 232;" xml:space="preserve">
<style type="text/css">
	.st0{fill:#FF9E18;}
	.st1{fill:url(#SVGID_1_);}
	.st2{fill:#FF5100;}
	.st3{fill:#96262C;}
	.st4{fill:#1A3358;}
	.st5{fill:url(#SVGID_2_);}
	.st6{fill:#010202;}
	.st7{fill:#7C79B8;}
	.st8{fill:#DE0A18;}
	.st9{fill:#17A6DF;}
	.st10{fill:#00548D;}
	.st11{fill:#FFFFFF;}
	.st12{fill:#EA560D;}
	.st13{fill:#E30613;}
	.st14{fill:#F59E00;}
	.st15{fill:url(#SVGID_3_);}
	.st16{fill:#01568C;}
	.st17{fill:#0071CE;}
</style>
<g>
	<path class="st10" d="M56.8,185.6l384.8,0c15.1,0,27.3-12.2,27.3-27.3V46.4H56.8V185.6z"/>
	<path class="st11" d="M275.3,123.6L266.8,97l-8.3,26.7H275.3z M274.8,88.2l19.1,56.4h-12l-3.8-11.7h-22.4l-3.9,11.7h-12l17.6-52.1
		c0.9-2.6,3.3-4.3,6-4.3H274.8z"/>
	<path class="st11" d="M329.3,130.2c0,4.1-2.2,5.5-7.4,5.5h-11.7v-15.4h12.7c4.5,0,6.4,1.9,6.4,5.7V130.2z M310.2,97h11
		c4.2,0,6,1.4,6,4.6v5c0,3.3-1.6,5.2-6.1,5.2h-10.9V97z M331.9,115.2c4.6-1.9,6.7-4.5,6.7-9.1v-5.8c0-7.6-4.6-12-16.1-12h-23.8v56.4
		h25.4c11,0,16.5-5,16.5-12.9v-6C340.7,120.1,337.4,116.3,331.9,115.2"/>
	<path class="st11" d="M218.9,96.1h16.4V92c0-3.1-2.5-5.6-5.6-5.6h-10.9c-14.7,0.1-21,6.1-21,16.3v25.4c0,10.2,6.3,16.2,21,16.3v0
		h15.8v-4.1c0-3.1-2.5-5.6-5.6-5.6h-10.2v0c-7.2-0.2-9.6-2.7-9.6-8.5v-21.7C209.3,98.9,211.7,96.3,218.9,96.1"/>
	<path class="st11" d="M412.9,135.2V97v-9.7h-5.1c-3.5,0-6.3,2.8-6.3,6.3V97v47.5h36.3v-9.4H412.9z"/>
	<path class="st11" d="M378.8,123.6L370.3,97l-8.3,26.7H378.8z M378.3,88.2l19.1,56.4h-12l-3.8-11.7h-22.4l-3.9,11.7h-12l17.1-50.5
		c1.2-3.5,4.5-5.9,8.2-5.9H378.3z"/>
	<path class="st11" d="M135.7,70.8l41.8,41.1c2.3,2.3,2.3,6.1,0,8.3l-41.8,41.1v-23l19.6-19.4c1.6-1.6,1.6-4.2,0-5.8l-19.6-19.4
		V70.8z"/>
	<path class="st11" d="M128,70.8l-41.8,41.1c-2.3,2.3-2.3,6.1,0,8.3l41.8,41.1l0-23l-19.6-19.4c-1.6-1.6-1.6-4.2,0-5.8L128,93.7
		V70.8z"/>
</g>
</svg>
