<svg xmlns="http://www.w3.org/2000/svg" viewBox="0 0 64.94 45.04"><defs><style>.cls-1{fill:none;}.cls-2{fill:#f15623;}.cls-3{fill:#ff9e16;}.cls-4{fill:url(#linear-gradient);}.cls-5{fill:#9b282d;}.cls-6{fill:#FFFFFF;}</style><linearGradient id="linear-gradient" x1="17.2" y1="17.72" x2="31.55" y2="17.72" gradientUnits="userSpaceOnUse"><stop offset="0" stop-color="#f99d27" stop-opacity="0"/><stop offset=".02" stop-color="#f89627" stop-opacity=".06"/><stop offset=".12" stop-color="#f37a27" stop-opacity=".28"/><stop offset=".23" stop-color="#ef6227" stop-opacity=".47"/><stop offset=".33" stop-color="#eb4d26" stop-opacity=".63"/><stop offset=".45" stop-color="#e83c26" stop-opacity=".77"/><stop offset=".56" stop-color="#e62f26" stop-opacity=".87"/><stop offset=".69" stop-color="#e42626" stop-opacity=".94"/><stop offset=".82" stop-color="#e32126" stop-opacity=".99"/><stop offset="1" stop-color="#e31f26"/></linearGradient></defs><title>naranja</title><path class="cls-1" d="M26.27 38.79a.86.86 0 0 0-.71.35 1.06 1.06 0 0 0-.2.68 1 1 0 0 0 .28.76.88.88 0 0 0 .65.27.85.85 0 0 0 .72-.35 1.11 1.11 0 0 0 .2-.68 1 1 0 0 0-.27-.75.87.87 0 0 0-.67-.28zM32.84 38.79a.86.86 0 0 0-.71.35 1.07 1.07 0 0 0-.2.68 1 1 0 0 0 .27.76.88.88 0 0 0 .65.27.85.85 0 0 0 .72-.35 1.11 1.11 0 0 0 .2-.68 1 1 0 0 0-.27-.75.87.87 0 0 0-.66-.28zM42.75 38.79a.86.86 0 0 0-.71.35 1.07 1.07 0 0 0-.2.68 1 1 0 0 0 .28.76.88.88 0 0 0 .65.27.85.85 0 0 0 .72-.35 1.11 1.11 0 0 0 .2-.68 1 1 0 0 0-.27-.75.87.87 0 0 0-.67-.28zM1 44h63v-43h-63zm22.86-2.52h-.76l-2.68-3.58v3.58h-.91v-5.1h.79l2.7 3.62v-3.62h.91zm4.18 0h-.88v-.22a1.49 1.49 0 0 1-.92.33 1.72 1.72 0 0 1-1.34-.6 1.78 1.78 0 0 1-.46-1.23 1.8 1.8 0 0 1 1.83-1.76 1.49 1.49 0 0 1 .92.33v-.23h.88zm2.69-2.64h-.32a.6.6 0 0 0-.53.22 1.5 1.5 0 0 0-.15.79v1.65h-.88v-3.4h.88v.22a1 1 0 0 1 .67-.25h.32zm3.88 2.64h-.88v-.22a1.49 1.49 0 0 1-.92.33 1.72 1.72 0 0 1-1.33-.6 1.78 1.78 0 0 1-.48-1.18 1.8 1.8 0 0 1 1.84-1.81 1.49 1.49 0 0 1 .92.33v-.23h.88zm3.93 0h-.84v-1.74a1.23 1.23 0 0 0-.17-.77.58.58 0 0 0-.46-.18.7.7 0 0 0-.57.24 1.35 1.35 0 0 0-.16.79v1.71h-.88v-3.43h.88v.18a1.24 1.24 0 0 1 .8-.29 1.46 1.46 0 0 1 1.06.46 1.67 1.67 0 0 1 .38 1.24zm1.77.22c-.07 1.54-1.74 1.56-1.74 1.56v-.85a.81.81 0 0 0 .86-.79v-3.52h.88zm0-4.42a.54.54 0 0 1-.39.16.53.53 0 0 1-.39-.16.54.54 0 0 1 0-.77.56.56 0 0 1 .4-.15.54.54 0 0 1 .38.16.54.54 0 0 1 0 .77zm4.25 4.2h-.88v-.22a1.49 1.49 0 0 1-.92.33 1.72 1.72 0 0 1-1.34-.6 1.78 1.78 0 0 1-.42-1.18 1.8 1.8 0 0 1 1.75-1.81 1.49 1.49 0 0 1 .92.33v-.23h.88zm1.88-36.7a.77.77 0 0 1 .56-.2.82.82 0 0 1 .53 1.42.82.82 0 0 1-1.12 0 .8.8 0 0 1-.24-.59.78.78 0 0 1 .27-.63zm-29.24 18.37a8.63 8.63 0 0 0 8.62-8.62v-8a2.86 2.86 0 0 1 5.37-1.36l8.33 15.07v-13.68a2.87 2.87 0 1 1 5.73 0v24.939999999999998a2.84 2.84 0 0 1 0 .31c0 .09 0 .18-.05.26l-.08.26-.1.26-.13.24-.15.23-.18.22-.19.2-.21.17-.25.17-.11.07h-.1a2.83 2.83 0 0 1-.45.18l-.18.05a2.86 2.86 0 0 1-.6.07 2.85 2.85 0 0 1-.67-.09l-.18-.06a2.83 2.83 0 0 1-.48-.2l-.17-.09a2.87 2.87 0 0 1-.53-.41l-.06-.07a2.86 2.86 0 0 1-.37-.51l-.06-.08-8.65-15.48a14.37 14.37 0 0 1-14.1 11.68zM47 6a.64.64 0 0 0 .64-.64.62.62 0 0 0-.21-.47.61.61 0 0 0-.43-.14.59.59 0 0 0-.46.21.64.64 0 0 0-.17.44.66.66 0 0 0 .21.47.61.61 0 0 0 .42.13zm-.3-1a.47.47 0 0 1 .3-.1.51.51 0 0 1 .38.19l-.14.13c-.1-.11-.15-.13-.24-.13a.27.27 0 0 0-.2.08.29.29 0 0 0-.08.21.28.28 0 0 0 .08.21.27.27 0 0 0 .2.08h.11l.13-.11.14.13a.49.49 0 0 1-.35.16.48.48 0 0 1-.35-.85z" transform="translate(-.03 -.01)"/><path class="cls-2" d="M22.95 39.95l-2.68-3.58h-.79v5.15h.91v-3.58l2.68 3.58h.79v-5.15h-.91v3.58z"/><path class="cls-2" d="M27.19 38.32a1.49 1.49 0 0 0-.92-.33 1.8 1.8 0 0 0-1.8 1.82 1.78 1.78 0 0 0 .47 1.19 1.72 1.72 0 0 0 1.34.6 1.49 1.49 0 0 0 .92-.33v.22h.88v-3.39h-.88zm-.19 2.17a.85.85 0 0 1-.72.35.88.88 0 0 1-.65-.27 1 1 0 0 1-.28-.76 1.06 1.06 0 0 1 .2-.68.86.86 0 0 1 .71-.35.87.87 0 0 1 .66.26 1 1 0 0 1 .27.75 1.11 1.11 0 0 1-.19.7zM29.77 38.33v-.23h-.88v3.42h.88v-1.64a1.5 1.5 0 0 1 .15-.79.6.6 0 0 1 .53-.22h.32v-.77h-.32a1 1 0 0 0-.68.23zM33.76 38.32a1.49 1.49 0 0 0-.92-.33 1.8 1.8 0 0 0-1.84 1.82 1.78 1.78 0 0 0 .51 1.19 1.72 1.72 0 0 0 1.33.6 1.49 1.49 0 0 0 .92-.33v.22h.88v-3.39h-.88zm-.19 2.17a.85.85 0 0 1-.72.35.88.88 0 0 1-.65-.27 1 1 0 0 1-.27-.76 1.07 1.07 0 0 1 .2-.68.86.86 0 0 1 .71-.35.87.87 0 0 1 .66.26 1 1 0 0 1 .27.75 1.11 1.11 0 0 1-.19.7zM37.14 38a1.24 1.24 0 0 0-.8.29v-.19h-.88v3.42h.88v-1.7a1.35 1.35 0 0 1 .16-.82.7.7 0 0 1 .57-.24.58.58 0 0 1 .46.18 1.23 1.23 0 0 1 .17.77v1.78h.88v-1.8a1.67 1.67 0 0 0-.38-1.24 1.46 1.46 0 0 0-1.06-.45zM39.92 36.4a.56.56 0 0 0-.4.15.54.54 0 0 0 0 .77.53.53 0 0 0 .39.16.54.54 0 0 0 .39-.16.54.54 0 0 0 0-.77.54.54 0 0 0-.38-.15zM43.67 38.32a1.49 1.49 0 0 0-.92-.33 1.8 1.8 0 0 0-1.75 1.82 1.78 1.78 0 0 0 .42 1.19 1.72 1.72 0 0 0 1.34.6 1.49 1.49 0 0 0 .92-.33v.22h.88v-3.39h-.88zm-.19 2.17a.85.85 0 0 1-.72.35.88.88 0 0 1-.65-.27 1 1 0 0 1-.28-.76 1.07 1.07 0 0 1 .2-.68.86.86 0 0 1 .71-.35.87.87 0 0 1 .66.26 1 1 0 0 1 .27.75 1.11 1.11 0 0 1-.19.7zM39.47 41.67a.81.81 0 0 1-.86.79v.85s1.67 0 1.74-1.56v-3.65h-.88z" transform="translate(-.03 -.01)"/><path class="cls-3" d="M31.3 17.2l-5.13-9.28a2.83 2.83 0 0 1-.33-1.36v8a8.63 8.63 0 0 1-8.62 8.62v5.73a14.37 14.37 0 0 0 14.08-11.71z" transform="translate(-.03 -.01)"/><path class="cls-4" d="M31.3 17.2l-5.13-9.28a2.83 2.83 0 0 1-.33-1.36v8a8.63 8.63 0 0 1-8.62 8.62v5.73a14.37 14.37 0 0 0 14.08-11.71z" transform="translate(-.03 -.01)"/><path class="cls-2" d="M47 6.21a.81.81 0 0 0 .6-1.36.78.78 0 0 0-.6-.27.77.77 0 0 0-.54.21.78.78 0 0 0-.27.59.8.8 0 0 0 .24.59.78.78 0 0 0 .57.24zm-.49-1.21a.59.59 0 0 1 .49-.25.61.61 0 0 1 .43.16.64.64 0 0 1 0 .9.64.64 0 0 1-.9 0 .66.66 0 0 1-.21-.47.64.64 0 0 1 .19-.34zM47 5.87a.49.49 0 0 0 .35-.16l-.14-.13-.13.11h-.11a.27.27 0 0 1-.2-.08.28.28 0 0 1-.08-.21.29.29 0 0 1 .08-.21.27.27 0 0 1 .2-.08c.09 0 .14 0 .24.13l.14-.13a.51.51 0 0 0-.35-.21.48.48 0 0 0-.49.48.48.48 0 0 0 .49.48z" transform="translate(-.03 -.01)"/><path class="cls-5" d="M44.31 33.46l-.21.17zM43.74 33.88l.11-.07-.2.11zM44.68 33.05l-.18.22zM43.19 34.09l-.18.05zM42.37 34.22zM40.34 33.37l-.06-.07zM41.04 33.88l-.17-.09zM44.97 32.58c0 .08-.08.16-.13.24l.13-.24zM41.69 34.14l-.18-.06zM45.14 32.06c0 .09-.05.18-.08.26l.08-.26z"/><path class="cls-5" d="M45.26 31.5a2.86 2.86 0 0 1 0 .31 2.84 2.84 0 0 0 0-.31zM26.17 7.92l5.13 9.28 8.59 15.54.06.08a2.84 2.84 0 0 1-.4-1.44v-11.12l-8.34-15.07a2.86 2.86 0 0 0-5.37 1.36 2.83 2.83 0 0 0 .33 1.37z" transform="translate(-.03 -.01)"/><path class="cls-2" d="M39.94 32.81a2.86 2.86 0 0 0 .37.51l.06.07a2.87 2.87 0 0 0 .53.41l.17.09a2.83 2.83 0 0 0 .48.2l.18.06a2.85 2.85 0 0 0 .67.09 2.86 2.86 0 0 0 .6-.07l.18-.05a2.83 2.83 0 0 0 .45-.18l.2-.11.25-.17.21-.17.19-.2.18-.22.15-.23c0-.08.09-.16.13-.24l.1-.26.08-.26s0-.17.05-.26a2.86 2.86 0 0 0 0-.31v-24.95a2.87 2.87 0 1 0-5.73 0v24.81a2.84 2.84 0 0 0 .5 1.44z" transform="translate(-.03 -.01)"/><path class="cls-6" d="M-.03-.01v45h65v-45zm64 44h-63v-43h63z"/></svg>