<svg xmlns="http://www.w3.org/2000/svg" viewBox="0 0 65 45" enable-background="new 0 0 65 45"><style type="text/css">.st0{fill:#FFFFFF;} .st1{fill:#FFFFFF;} .st2{fill:#1D3B6F;} .st3{fill:#F0B91B;}</style><path class="st0" d="M.5.5h63.9v44h-63.9z"/><path class="st1" d="M0 0v45h65v-45h-65zm64 44h-63v-43h63v43z"/><path class="st2" d="M19.4 11.3c-.6.9-1.1 1.9-1.6 3l-.2.6c-.5 1.1-.8 2.2-1 3.3-.4 1.3-.6 2.8-.6 4.4 0 1.5.2 3 .5 4.4.2 1 .6 2.1 1 3.3l.2.6c.5 1.1 1 2.1 1.6 3-.7-1.5-1.2-2.9-1.6-4.4-.6-2.3-.9-4.6-.9-6.8 0-2.3.3-4.6.9-6.9.4-1.6 1-3 1.7-4.5zm22.6 4.8h1.3v1.3h-1.3zm-16.2 1.7c-.9 0-1.7.4-2.4 1.3v-1.1h-1.2v9h1.2v-5.7c0-.9.2-1.6.7-2.1.4-.4.9-.6 1.5-.6 1.2 0 1.8.7 1.8 2.1v6.3h1.2v-6.3c0-.8-.1-1.4-.4-1.9-.6-.7-1.3-1-2.4-1zm8.8.4c-.4-.2-1.1-.3-1.9-.3-.8 0-1.5.1-2 .4-.1 0-.2.1-.2.1-.7.4-1 1-1.1 1.9h1.3v-.4c.1-.4.2-.6.5-.8.3-.3.8-.4 1.4-.4.7 0 1.3.2 1.6.6.3.3.4.9.4 1.6v.8l-3.5.4-.4.1c-1 .4-1.6 1.3-1.6 2.5 0 .8.2 1.4.7 1.9.2.2.5.4.9.6.3.1.7.2 1.1.2 1.2 0 2.2-.4 2.8-1.3v.9h1.2l-.1-6.8c.1-1-.3-1.7-1.1-2zm0 5.8c0 .6-.2 1.1-.7 1.6-.5.5-1.1.7-1.7.7-.6 0-1-.2-1.3-.5l-.1-.1c-.2-.3-.3-.7-.3-1.2 0-.4.1-.8.3-1.1.2-.4.6-.6 1.2-.7l2.7-.2v1.5zm4.5-7.9h-1.2v1.9h-1.6v.8h1.6v6.4c0 .6.1 1 .4 1.3.3.3.9.4 1.6.4h1.1v-.9l-.9.1c-.4 0-.7-.1-.9-.3-.1-.2-.2-.6-.2-1.2v-5.8h2v-.8h-2v-1.9zm2.9 1.9h1.3v9h-1.3zm5.8 7.6h-.1l-2.3-7.6h-1.3l2.9 9h1.3l3-9h-1.1zm10.3 1.4c-.1-.7-.1-1.4-.1-2.3v-4.5c0-1.6-1-2.4-3.1-2.4-.9 0-1.7.2-2.2.6-.6.4-1 1-1 1.9h1.3c0-.5.2-.9.6-1.2.3-.3.8-.4 1.4-.4.7 0 1.2.2 1.6.6.3.3.4.9.4 1.6v.8l-3.5.4c-1.3.4-2 1.2-2 2.6 0 .8.2 1.4.7 1.9.5.5 1.1.7 2 .7 1.2 0 2.1-.4 2.7-1.3h.1v1h1.1zm-1.3-3c0 .6-.2 1.1-.7 1.6-.5.5-1.1.7-1.7.7-.6 0-1-.2-1.4-.5-.3-.3-.4-.8-.4-1.3 0-.9.5-1.6 1.5-1.8l2.7-.2v1.5z"/><path class="st3" d="M15 14v4.4l-2.4-3.8 1.3 4.2-3.4-3.1 2.4 3.8-4.1-2.2 3.4 3.1-4.6-1.2 4.1 2.2h-4.8l4.6 1.2-4.6 1.1h4.8l-4.1 2.2 4.6-1.2-3.4 3.1 4.1-2.2-2.4 3.8 3.4-3.1-1.3 4.2 2.4-3.8v4.4l1.2-4.1c-.3-1.5-.5-3-.5-4.4 0-1.5.2-2.9.5-4.4l-1.2-4.2zm30.6 14.9l-1.2-1.3-.3 2h.4l.2-1.1 1.2 1.3.3-2h-.4zm4.1-.9c-.4.3-.4.8-.4.8 0 .2.1.4.2.5.2.2.4.3.7.3l.6-.2.1-.5-.2.2c-.1.1-.3.2-.5.2l-.4-.2c-.1-.1-.2-.3-.1-.4 0-.2.3-.4.3-.4.1-.1.3-.2.5-.2.1 0 .3.1.4.2l.1.1.1-.5s-.4-.2-.6-.2-.6.2-.8.3zm-3.1 1.6h.4l.3-.5h.6l.1.5h.4l-.6-2.1-1.2 2.1zm1-.8l.2-.4.1.4h-.3zm6.8-1c-.3 0-.5.1-.8.3-.2.2-.4.4-.4.6 0 .3 0 .5.2.7.2.2.4.3.7.3 0 0 .4 0 .8-.2l.4-.7c0-.3 0-.5-.2-.7-.2-.2-.4-.3-.7-.3zm.2 1.3s-.3.3-.5.2c-.2 0-.3-.1-.4-.2-.1-.1-.1-.3-.1-.4 0-.2.3-.4.3-.4s.3-.2.5-.2.3.1.4.2c.1.1.1.3.1.4l-.3.4zm-2.8.5h.4l.3-1.8h-.3zm5.9-1.8l-.2 1.1-1.2-1.3-.3 2h.4l.1-1.1 1.2 1.3.4-2z"/></svg>