<?xml version="1.0" encoding="utf-8"?>
<!-- Generator: Adobe Illustrator 18.0.0, SVG Export Plug-In . SVG Version: 6.00 Build 0)  -->
<!DOCTYPE svg PUBLIC "-//W3C//DTD SVG 1.1//EN" "http://www.w3.org/Graphics/SVG/1.1/DTD/svg11.dtd">
<svg version="1.1"
	 id="svg5204" xmlns:inkscape="http://www.inkscape.org/namespaces/inkscape" xmlns:cc="http://creativecommons.org/ns#" xmlns:svg="http://www.w3.org/2000/svg" xmlns:dc="http://purl.org/dc/elements/1.1/" xmlns:sodipodi="http://sodipodi.sourceforge.net/DTD/sodipodi-0.dtd" xmlns:rdf="http://www.w3.org/1999/02/22-rdf-syntax-ns#" sodipodi:docname="MasterCard.eps" inkscape:version="0.48.4 r9939"
	 xmlns="http://www.w3.org/2000/svg" xmlns:xlink="http://www.w3.org/1999/xlink" x="0px" y="0px" viewBox="-10.2 39.2 800 504.3"
	 enable-background="new -10.2 39.2 800 504.3" xml:space="preserve">
<g>
	<path fill="#004A8A" d="M789.8,291.4v210.4c0,23-18.8,41.7-41.7,41.7H31.5c-23,0-41.7-18.8-41.7-41.7V291.4"/>
	<path fill="#F9D84E" d="M-10.2,291.4V81c0-23,18.8-41.7,41.7-41.7h716.5c23,0,41.7,18.8,41.7,41.7v210.4"/>
</g>
<g>
	<g id="g4484" transform="matrix(0.57172858,0,0,0.57172858,-545.24424,69.959485)">
		<g id="g4475">
			<path id="path3262_1_" sodipodi:nodetypes="ccccccccc" inkscape:connector-curvature="0" fill="#004A8A" d="M1123.9,379l24-122.4
				h-44.2l8.7-44.2h150.3l-8.7,44.2h-44.5l-24,122.4H1123.9z"/>
			<path id="path3202" sodipodi:nodetypes="ccccccccccccc" inkscape:connector-curvature="0" fill="#004A8A" d="M1982.7,379
				l90.8-166.3h64.3l28.9,166.3h-63l-2.4-22.3h-47l-10.1,22.3H1982.7z M2093.6,275l-18.1,39.3h22.6L2093.6,275z"/>
			<path id="path4465" sodipodi:nodetypes="ccccccccccccc" inkscape:connector-curvature="0" fill="#004A8A" d="M1208.1,379
				l90.8-166.3h64.3l28.9,166.3h-63l-2.4-22.3h-46.6L1270,379H1208.1z M1319,275l-18.1,39.3h22.6L1319,275z"/>
			<path id="path4467" sodipodi:nodetypes="ccccccccc" inkscape:connector-curvature="0" fill="#004A8A" d="M1898.5,379l24-122.4
				h-44.2l8.7-44.2h150.3l-8.7,44.2h-44.5l-24,122.4H1898.5z"/>
			<path id="path4469" sodipodi:nodetypes="ccccccccccccc" inkscape:connector-curvature="0" fill="#004A8A" d="M1734.3,212.7h145.4
				l-9,44.2c0,0-51.8,0-84.2,0l-3.5,16.7h70.3l-8.7,44.5h-69.9l-3.5,16.7h84.2l-8.7,44.5h-145.4L1734.3,212.7z"/>
			<path id="path4471" sodipodi:nodetypes="ccczcsccccsc" inkscape:connector-curvature="0" fill="#004A8A" d="M1602.8,382.4
				c-36.9-10.8-39-38.3-29.9-68.5h51.1c0,0-6.3,21.9,0.7,25c7,3.5,9.7-6.6,9.7-6.6s7-29.2,12.9-60.5c6.3-31.3,11.5-59.8,11.5-59.8
				h61.2c0,0-5.6,31.3-11.8,63c-10.1,37.6-10.1,81.4-44.5,99.8C1648.4,383.1,1622.3,386.3,1602.8,382.4L1602.8,382.4z"/>
			<path id="path4473" sodipodi:nodetypes="ssssscsssccccccccszccz" inkscape:connector-curvature="0" fill="#004A8A" d="
				M1433.1,212.7l49.4,0.7c52.2,0.7,55,0.3,65,4.2c5.9,2.1,12.9,5.9,15.7,8c11.1,8.7,15.3,30.3,9,48.3
				c-3.5,10.4-13.6,22.6-22.6,27.1l-6.6,3.5l5.9,4.2c8,5.9,10.4,14.6,8.7,33.4c-0.7,8.7-1.4,20.9-1.7,26.4l-0.3,10.8h-31.3h-32
				l3.8-18.8c9.4-43.1-4.5-36.5-27.5-36.5l-11.1,55.7c0,0-35.8,0-57,0L1433.1,212.7z M1520.1,265.6c3.5-18.4-38.3-12.9-38.3-12.9
				l-5.2,26.4C1476.9,278.8,1516.6,283.7,1520.1,265.6z"/>
		</g>
	</g>
	<g id="g4517" transform="matrix(0.49316495,0,0,0.49316495,-446.13926,22.612205)">
		<g id="g4494">
			<g id="g4232" transform="translate(881.90072,85.61522)">
				<g id="g4234">
					<path id="path4236" sodipodi:nodetypes="cssccccsssccccccccsscc" inkscape:connector-curvature="0" fill="#F9D84E" d="
						M1327.1,659.7c-34.1-5.9-53.9-28.9-53.9-63.7c-0.3-66.8,48.3-113.4,114.4-109.6c37.6,2.1,59.8,23,59.8,55.3v9h-30.3h-30.6
						l-1.4-5.6c-1.7-7.3-7-9.7-17.7-9c-9.7,1-16,4.9-21.6,13.6c-9.7,14.6-13.2,42.4-7.3,54.3c5.9,10.8,29.6,22.6,45.6-2.4
						c-4.9,0-15,0-22.6,0l7.3-37.9h77.9l-18.4,92.5c0,0-29.2-0.3-44.2,0.3v-4.5v-5.2l-7.3,4.9C1363.2,660.8,1349,663.2,1327.1,659.7
						L1327.1,659.7z"/>
				</g>
			</g>
			<g id="g4244" transform="translate(881.90072,85.61522)">
				<g id="g4246">
					<path id="path4248" sodipodi:nodetypes="ccccccccccc" inkscape:connector-curvature="0" fill="#F9D84E" d="M1124.6,490.4h59.1
						l22.6,68.2l13.9-68.2h60.2l-32.7,165.9h-60.2l-23-66.4l-13.2,66.4h-59.1L1124.6,490.4z"/>
				</g>
			</g>
			<g id="g4258" transform="translate(881.90072,85.61522)">
				<path id="path4260" sodipodi:nodetypes="ccccc" inkscape:connector-curvature="0" fill="#F9D84E" d="M1050.9,490.4h61.2
					l-32.7,165.9h-61.2L1050.9,490.4z"/>
			</g>
			<path id="path4264" sodipodi:nodetypes="zccccczcczc" inkscape:connector-curvature="0" fill="#F9D84E" d="M1769.7,575.9h91.5
				c60.9,0,60.2,77.9,25.7,103.3c-26.4,17.4-78.6,13.6-78.6,13.6l-9.7,49.4h-61.2L1769.7,575.9z M1855.6,634
				c3.8-17.7-18.4-12.5-33.4-12.9l-5.2,26.1C1836.1,647.6,1851.7,651.7,1855.6,634z"/>
			<g id="g4280" transform="translate(881.90072,85.61522)">
				<g id="g4282">
					<path id="path4284" sodipodi:nodetypes="ccccczcszcs" inkscape:connector-curvature="0" fill="#F9D84E" d="M725,490.4h91.5
						c60.9,0,60.2,77.9,25.7,103.3c-26.4,17.4-78.6,13.6-78.6,13.6l-9.7,49.4h-61.2L725,490.4z M810.9,548.1
						c3.8-17.7-18.4-12.5-33.4-12.9l-5.2,26.1C791.4,562,807.1,565.8,810.9,548.1z"/>
				</g>
			</g>
			<g id="g4292" transform="translate(881.90072,85.61522)">
				<g id="g4294">
					<path id="path4296" sodipodi:nodetypes="ssssssscssssc" inkscape:connector-curvature="0" fill="#F9D84E" d="M569.5,659
						c-33.7-7.7-50.4-28.9-50.4-63.7c0-54.6,32.3-96.7,82.1-106.8c33.7-7,64.3-0.7,81.7,16.7c16.3,16.3,21.2,38.6,15,68.9
						c-8.3,41.4-36.2,73-73.4,83.1C609.5,661.1,583.4,662.2,569.5,659L569.5,659z M617.5,607.6c11.8-8.7,21.6-36.2,19.1-54.3
						c-2.4-18.1-16.7-24.7-33-15.3c-11.1,6.6-20.2,24.7-21.2,44.2c-0.7,17.7,1.7,25,9.7,28.5C599.4,614.2,610.5,612.8,617.5,607.6z"
						/>
				</g>
			</g>
			<g id="g4304" transform="translate(881.90072,85.61522)">
				<g id="g4306">
					<path id="path4308" sodipodi:nodetypes="zcccccccccccz" inkscape:connector-curvature="0" fill="#F9D84E" d="M373,490.4h60.2
						L422,546.7h32.3l11.1-56.3h60.9l-32.7,165.9h-60.9l11.5-58.1h-32.3l-11.5,58.1h-60.2L373,490.4z"/>
				</g>
			</g>
			<g id="g4316" transform="translate(881.90072,85.61522)">
				<g id="g4318">
					<path id="path4320" sodipodi:nodetypes="ssccsssssssssccssssssss" inkscape:connector-curvature="0" fill="#F9D84E" d="
						M227.6,659.7c-31.7-5.2-49.4-21.9-49.7-45.6c0-5.2,0-11.8,0-11.8c23.3,0,39.7,0,64.7,0v4.5c0,5.9,6.6,10.4,15,10.4
						c13.6,0,20.2-11.8,9.7-17.4c-3.1-1.4-13.6-4.9-24-7.3c-32.3-8.3-43.8-15.3-49.4-29.9c-8.7-22.3,7.7-52.9,35.1-66.4
						c16.3-8,33.7-11.1,56.7-9.7c30.6,1.4,47,8,56.3,22.3c3.8,6.3,4.9,9.7,4.9,20.2v12.5h-61.2c0,0,0-2.4,0-3.5
						c0-9-16.7-13.2-24-5.9c-4.5,4.5-4.9,10.4-0.3,12.9c1.7,1,13.2,3.8,25.4,6.6c34.4,7.3,48.3,16,52.9,33
						c4.2,15.3-3.8,38.6-18.1,52.9C302.7,655.9,262.7,665.7,227.6,659.7L227.6,659.7z"/>
				</g>
			</g>
		</g>
	</g>
</g>
</svg>
