<svg xmlns="http://www.w3.org/2000/svg" viewBox="0 0 64.94 45.04"><defs><style>.cls-1{fill:#ffffff;}.cls-2{fill:#ffffff;}.cls-3{fill:#222c64;fill-rule:evenodd;}</style></defs><title>visa</title><path class="cls-1" d="M.5.5h63.94v44.04h-63.94z"/><path class="cls-2" d="M64.97 45.04h-65v-45h65zm-64-1h63v-43h-63z"/><path class="cls-3" d="M27.48 14.5l-2.61 16.13h4.17l2.6-16.13h-4.16z"/><path class="cls-3" d="M40.08 20.93c-1.46-.74-2.35-1.24-2.35-2s.76-1.39 2.4-1.39a7.09 7.09 0 0 1 3.11.62l.38.17.57-3.48a10.29 10.29 0 0 0-3.74-.69c-4.12 0-7 2.2-7 5.34 0 2.32 2.08 3.6 3.66 4.38s2.16 1.3 2.16 2c0 1.08-1.31 1.58-2.51 1.58a8.29 8.29 0 0 1-3.91-.86l-.55-.26-.62 3.66a12.72 12.72 0 0 0 4.65.86c4.37 0 7.22-2.16 7.26-5.51.01-1.86-1.1-3.27-3.51-4.42zM54.88 14.46h-3.23a2.06 2.06 0 0 0-2.18 1.34l-6.19 14.79h4.38l.87-2.42h5.35c.12.56.5 2.42.5 2.42h3.86zm-5.15 10.42l1.66-4.51s.34-.94.55-1.55l.29 1.39s.79 3.86 1 4.67zM21.42 14.46l-4.08 11-.45-2.23-1.46-7.41a1.73 1.73 0 0 0-1.89-1.35h-6.71l-.07.33a16.85 16.85 0 0 1 4.39 1.81l3.71 14h4.41l6.55-16.11z" transform="translate(-.03 .04)"/></svg>